<?xml version="1.0" encoding="UTF-8"?>
<svg xmlns="http://www.w3.org/2000/svg" xmlns:xlink="http://www.w3.org/1999/xlink" width="62px" height="62px" viewBox="0 0 62 61" version="1.1">
<g id="surface1">
<path style=" stroke:none;fill-rule:nonzero;fill:rgb(18.039216%,18.823529%,51.372549%);fill-opacity:1;" d="M 31.238281 38.03125 C 19.980469 38.03125 10.863281 42.519531 10.863281 48.054688 L 10.863281 53.066406 L 51.613281 53.066406 L 51.613281 48.054688 C 51.613281 42.519531 42.496094 38.03125 31.238281 38.03125 Z M 21.050781 22.996094 C 21.050781 25.65625 22.125 28.207031 24.035156 30.085938 C 25.945312 31.964844 28.535156 33.019531 31.238281 33.019531 C 33.941406 33.019531 36.53125 31.964844 38.441406 30.085938 C 40.351562 28.207031 41.425781 25.65625 41.425781 22.996094 M 29.964844 5.457031 C 29.199219 5.457031 28.691406 5.984375 28.691406 6.710938 L 28.691406 14.226562 L 26.144531 14.226562 L 26.144531 7.960938 C 26.144531 7.960938 20.414062 10.117188 20.414062 17.359375 C 20.414062 17.359375 18.503906 17.710938 18.503906 20.492188 L 43.972656 20.492188 C 43.84375 17.710938 42.0625 17.359375 42.0625 17.359375 C 42.0625 10.117188 36.332031 7.960938 36.332031 7.960938 L 36.332031 14.226562 L 33.785156 14.226562 L 33.785156 6.710938 C 33.785156 5.984375 33.300781 5.457031 32.511719 5.457031 Z M 29.964844 5.457031 "/>
</g>
</svg>
