<svg width="34" height="46" viewBox="0 0 34 46" fill="none" xmlns="http://www.w3.org/2000/svg">
<g clip-path="url(#clip0_178_462)">
<path d="M15.1111 0.912957H17V18.7255C17 21.313 14.8844 23.413 12.2778 23.413H9.44444V45.913H7.55556V23.413H4.72222C2.11556 23.413 0 21.313 0 18.7255V0.912957H1.88889V18.7255C1.88889 20.2817 3.15444 21.538 4.72222 21.538H7.55556V0.912957H9.44444V21.538H12.2778C13.8456 21.538 15.1111 20.2817 15.1111 18.7255V0.912957ZM34 17.3567C34 26.2067 26.1611 34.813 24.5556 36.4817V45.913H22.6667V3.72546C22.6667 2.48796 23.4222 1.43796 24.6122 1.06296C25.7833 0.669207 27.0489 1.06296 27.7856 2.05671C30.6189 5.82546 34 11.5442 34 17.338V17.3567ZM24.5556 33.6505C27.1811 30.5567 32.1111 23.8817 32.1111 17.3567C32.1111 12.0692 28.9378 6.74421 26.2744 3.18171C26.0478 2.86296 25.7456 2.78796 25.5189 2.78796C25.3678 2.78796 25.2544 2.82546 25.1978 2.84421C25.0467 2.90046 24.5556 3.10671 24.5556 3.72546V33.6505Z" fill="#2E3083"/>
</g>
<defs>
<clipPath id="clip0_178_462">
<rect width="34" height="45" fill="white" transform="translate(0 0.912231)"/>
</clipPath>
</defs>
</svg>
