<svg width="41" height="41" viewBox="0 0 41 41" fill="none" xmlns="http://www.w3.org/2000/svg">
<path d="M36.7302 0.912231H4.27065C1.91711 0.912231 0 3.15664 0 5.912V40.9122H1.7081V34.9121H39.2919V40.9122H41V5.912C41 3.1557 39.0853 0.912231 36.7294 0.912231H36.7302ZM4.27065 2.91195H36.7294C38.142 2.91195 39.2919 4.25822 39.2919 5.912V22.912H35.8749V19.9119C35.8749 17.1556 33.9602 14.9121 31.6042 14.9121H23.9166C22.5208 14.9121 21.2788 15.7006 20.4996 16.9165C19.7204 15.7006 18.4784 14.9121 17.0826 14.9121H9.39495C7.04061 14.9121 5.1243 17.1565 5.1243 19.9119V22.912H1.7081V5.912C1.7081 4.25822 2.85804 2.91195 4.27065 2.91195ZM19.646 22.9129H6.8332V19.9128C6.8332 18.2591 7.98314 16.9128 9.39575 16.9128H17.0834C18.496 16.9128 19.646 18.2591 19.646 19.9128V22.9129ZM34.1676 22.9129H21.3549V19.9128C21.3549 18.2591 22.5048 16.9128 23.9174 16.9128H31.6051C33.0177 16.9128 34.1676 18.2591 34.1676 19.9128V22.9129ZM1.7081 32.9124V24.9126H39.2919V32.9124H1.7081Z" fill="#2E3083"/>
</svg>
