<svg width="41" height="42" viewBox="0 0 41 42" fill="none" xmlns="http://www.w3.org/2000/svg">
<g clip-path="url(#clip0_178_466)">
<path d="M23.2504 24.9997C22.4304 24.3506 21.6788 23.7356 21.0979 23.1718L20.4488 22.5226L19.8508 23.2231C18.6208 24.641 18.3304 26.4176 18.0913 27.8356C17.7838 29.7147 17.6129 29.9539 17.0833 29.9539C16.4171 29.9539 16.2292 28.4676 16.2292 28.1089L16.1608 26.0931L14.76 27.5451C13.5642 28.7922 11.9583 30.7397 11.9583 33.3706C11.9583 38.0856 15.785 41.9122 20.5 41.9122C25.215 41.9122 29.0417 38.0856 29.0417 33.3706C29.0417 29.6122 25.83 27.0668 23.2504 24.9997ZM21.7129 39.6231C21.0467 40.2893 19.9704 40.2893 19.3042 39.6231C18.6379 38.9568 18.6379 37.8806 19.3042 37.1972L20.5171 35.9843L21.73 37.1972C22.3963 37.8635 22.3963 38.9568 21.73 39.6231H21.7129ZM23.78 39.3326C24.1046 38.1881 23.8313 36.8897 22.9258 36.0014L20.5171 33.5756L18.1083 36.0014C17.2029 36.9068 16.9296 38.1881 17.2542 39.3326C15.1358 38.171 13.7008 35.9501 13.7008 33.3706C13.7008 32.0551 14.2475 30.9276 14.9308 30.0051C15.3067 30.8935 15.9729 31.6622 17.1175 31.6622C19.2188 31.6622 19.5433 29.6976 19.8167 28.1089C19.9875 27.1181 20.1583 26.0076 20.6879 25.0681C21.1663 25.4781 21.6958 25.9051 22.2425 26.3322C24.6513 28.2456 27.3846 30.4322 27.3846 33.3706C27.3846 35.9501 25.9325 38.171 23.8142 39.3326H23.78ZM39.2917 40.2039V8.80473L40.8292 5.7639L40.8975 5.59306C41.1879 4.46556 40.9317 3.28681 40.2142 2.36431C39.4967 1.44181 38.4204 0.912231 37.2417 0.912231H3.75833C2.59667 0.912231 1.52042 1.44181 0.802917 2.36431C0.0854167 3.28681 -0.170833 4.46556 0.119583 5.59306L1.70833 8.80473V40.221H0V41.9293H8.54167V21.8735C9.85708 21.0022 14.76 18.0126 20.5 18.0126C26.24 18.0126 31.1429 21.0022 32.4583 21.8735V41.9293H41V40.221H39.2917V40.2039ZM2.13542 3.4064C2.52833 2.91098 3.10917 2.62056 3.75833 2.62056H37.2417C37.8738 2.62056 38.4717 2.91098 38.8646 3.4064C39.2404 3.88473 39.3771 4.49973 39.2575 5.08056L37.925 7.74556H3.09208L1.75958 5.08056C1.64 4.48265 1.77667 3.88473 2.1525 3.4064H2.13542ZM34.1667 40.2039V20.9851L33.825 20.7289C33.5858 20.541 27.7775 16.2872 20.5 16.2872C13.2225 16.2872 7.41417 20.541 7.175 20.7289L6.83333 20.9851V40.2039H3.41667V9.4539H37.5833V40.2039H34.1667Z" fill="#2E3083"/>
</g>
<defs>
<clipPath id="clip0_178_466">
<rect width="41" height="41" fill="white" transform="translate(0 0.912231)"/>
</clipPath>
</defs>
</svg>
