<svg width="44" height="45" viewBox="0 0 44 45" fill="none" xmlns="http://www.w3.org/2000/svg">
<g clip-path="url(#clip0_178_472)">
<path d="M36.0802 18.027C35.2803 16.458 33.6716 15.4855 31.8826 15.4855H12.1182C10.3292 15.4855 8.72063 16.4588 7.92072 18.027L3.62905 26.4361C2.13836 29.357 1.34989 32.627 1.34989 35.8953V41.2344H5.10478V44.9131H12.6137V41.2344H31.3863V44.9131H38.8952V41.2344H42.6501V35.8953C42.6501 32.6288 41.8616 29.357 40.371 26.4361L36.0793 18.027H36.0802ZM5.30717 27.2577L9.59885 18.8486C10.0793 17.9072 11.0447 17.3235 12.1165 17.3235H31.8809C32.9545 17.3235 33.918 17.9063 34.3985 18.8486L38.6902 27.2577C38.8741 27.6181 39.0466 27.9862 39.2085 28.3595H4.79062C4.95166 27.988 5.12326 27.6198 5.30893 27.2577H5.30717ZM10.7367 43.0733H6.98178V41.2344H10.7367V43.0733ZM37.0182 43.0733H33.2633V41.2344H37.0182V43.0733ZM40.7731 39.3947H3.2269V35.8945C3.2269 33.9685 3.52873 32.0416 4.10776 30.1984H8.85878V33.8771H10.7358V30.1984H33.2633V33.8771H35.1403V30.1984H39.8914C40.4713 32.0416 40.7722 33.9685 40.7722 35.8945V39.3947H40.7731ZM44 10.9827L43.1719 12.6302L23.243 3.03046C22.466 2.65716 21.5349 2.65544 20.7553 3.03046L0.828063 12.631L0 10.9827L19.9272 1.38036C21.2243 0.755326 22.7731 0.75705 24.0702 1.38036L43.9991 10.9844V10.9827H44Z" fill="#2E3083"/>
</g>
<defs>
<clipPath id="clip0_178_472">
<rect width="44" height="44" fill="white" transform="translate(0 0.912231)"/>
</clipPath>
</defs>
</svg>
