<?xml version="1.0" encoding="UTF-8"?>
<svg xmlns="http://www.w3.org/2000/svg" xmlns:xlink="http://www.w3.org/1999/xlink" width="257px" height="88px" viewBox="0 0 256 88" version="1.1">
<defs>
<linearGradient id="linear0" gradientUnits="userSpaceOnUse" x1="-11445.563" y1="603.918" x2="-11445.563" y2="465.768" gradientTransform="matrix(0.461729,0,0,-0.463009,5316.04564,279.46329)">
<stop offset="0" style="stop-color:rgb(9.803922%,43.137255%,93.72549%);stop-opacity:1;"/>
<stop offset="0.5" style="stop-color:rgb(9.411765%,42.745098%,93.333333%);stop-opacity:1;"/>
<stop offset="1" style="stop-color:rgb(6.27451%,39.607843%,90.588235%);stop-opacity:1;"/>
</linearGradient>
<linearGradient id="linear1" gradientUnits="userSpaceOnUse" x1="-11323.519" y1="556.948" x2="-11323.519" y2="467.618" gradientTransform="matrix(0.461729,0,0,-0.463009,5316.04564,279.46329)">
<stop offset="0" style="stop-color:rgb(87.058824%,34.117647%,26.666667%);stop-opacity:1;"/>
<stop offset="0.5" style="stop-color:rgb(85.882353%,27.45098%,19.607843%);stop-opacity:1;"/>
<stop offset="1" style="stop-color:rgb(81.960784%,23.921569%,16.078431%);stop-opacity:1;"/>
</linearGradient>
<linearGradient id="linear2" gradientUnits="userSpaceOnUse" x1="-11130.575" y1="556.948" x2="-11130.575" y2="413.518" gradientTransform="matrix(0.461729,0,0,-0.463009,5316.04564,279.46329)">
<stop offset="0" style="stop-color:rgb(10.196078%,43.529412%,93.72549%);stop-opacity:1;"/>
<stop offset="0.25" style="stop-color:rgb(11.764706%,44.705882%,93.72549%);stop-opacity:1;"/>
<stop offset="0.5" style="stop-color:rgb(8.627451%,41.960784%,92.54902%);stop-opacity:1;"/>
<stop offset="0.75" style="stop-color:rgb(7.058824%,40.392157%,91.372549%);stop-opacity:1;"/>
<stop offset="1" style="stop-color:rgb(6.27451%,38.823529%,89.803922%);stop-opacity:0.870588;"/>
</linearGradient>
<linearGradient id="linear3" gradientUnits="userSpaceOnUse" x1="-11061.771" y1="601.408" x2="-11061.771" y2="470.128" gradientTransform="matrix(0.461729,0,0,-0.463009,5316.04564,279.46329)">
<stop offset="0" style="stop-color:rgb(3.921569%,64.705882%,38.039216%);stop-opacity:1;"/>
<stop offset="0.5" style="stop-color:rgb(0%,60.784314%,34.509804%);stop-opacity:1;"/>
<stop offset="1" style="stop-color:rgb(0%,56.862745%,29.411765%);stop-opacity:1;"/>
</linearGradient>
<linearGradient id="linear4" gradientUnits="userSpaceOnUse" x1="-10998.289" y1="556.948" x2="-10998.289" y2="467.864" gradientTransform="matrix(0.461729,0,0,-0.463009,5316.04564,279.46329)">
<stop offset="0" style="stop-color:rgb(87.058824%,33.72549%,26.666667%);stop-opacity:1;"/>
<stop offset="0.5" style="stop-color:rgb(85.490196%,27.058824%,19.215686%);stop-opacity:1;"/>
<stop offset="1" style="stop-color:rgb(80.784314%,22.745098%,15.686275%);stop-opacity:1;"/>
</linearGradient>
<linearGradient id="linear5" gradientUnits="userSpaceOnUse" x1="-11221.762" y1="556.754" x2="-11221.762" y2="467.795" gradientTransform="matrix(0.461729,0,0,-0.463009,5316.04564,279.46329)">
<stop offset="0" style="stop-color:rgb(100%,75.294118%,10.196078%);stop-opacity:1;"/>
<stop offset="0.5" style="stop-color:rgb(100%,72.941176%,1.176471%);stop-opacity:1;"/>
<stop offset="1" style="stop-color:rgb(100%,70.196078%,0%);stop-opacity:1;"/>
</linearGradient>
</defs>
<g id="surface1">
<path style=" stroke:none;fill-rule:nonzero;fill:url(#linear0);" d="M 39.585938 42.761719 L 50.597656 42.761719 L 50.597656 58.265625 C 47.160156 59.375 42.824219 59.980469 38.316406 59.980469 C 20.042969 59.980469 9.304688 44.289062 9.304688 28.964844 C 9.304688 13.9375 19.015625 3.394531 32.570312 3.394531 C 41.144531 3.394531 46.136719 6.308594 50.597656 10.363281 L 50.597656 15.425781 L 58.96875 7.03125 C 53.675781 3.4375 46.007812 0.0234375 35.050781 0.0234375 C 10.996094 0.0234375 0 17.28125 0 31.464844 C 0 51.652344 14.664062 63.8125 33.089844 63.8125 C 42.023438 63.8125 49.957031 62.445312 59.121094 59.886719 L 59.121094 43.867188 C 59.121094 43.050781 59.480469 42.488281 60.015625 41.992188 L 62.90625 39.09375 L 43.269531 39.09375 Z M 39.585938 42.761719 "/>
<path style=" stroke:none;fill-rule:nonzero;fill:url(#linear1);" d="M 88.902344 21.6875 C 75.058594 21.6875 66.480469 31.835938 66.480469 42.605469 C 66.480469 51.898438 73.390625 62.933594 87.394531 62.933594 C 100.863281 62.933594 109.128906 52.769531 109.128906 41.8125 C 109.128906 31.605469 101.050781 21.691406 88.902344 21.691406 Z M 86.605469 24.648438 C 96.367188 24.648438 100.714844 37.402344 100.714844 46.496094 C 100.714844 60.023438 90.597656 60.292969 89.386719 60.292969 C 84.753906 60.292969 81.519531 57.484375 79.09375 53.804688 C 76.960938 50.410156 74.878906 44.109375 74.878906 37.949219 C 74.878906 31.8125 76.878906 28.816406 80.03125 26.613281 C 82.609375 24.960938 85.023438 24.648438 86.605469 24.648438 Z M 86.605469 24.648438 "/>
<path style=" stroke:none;fill-rule:nonzero;fill:url(#linear2);" d="M 179.414062 21.6875 C 167.320312 21.6875 160.78125 29.363281 160.78125 37.933594 C 160.78125 44.460938 165.441406 51.824219 175.058594 51.824219 L 177.492188 51.824219 C 177.492188 51.824219 176.832031 53.4375 176.828125 54.996094 C 176.828125 57.296875 177.652344 58.589844 179.402344 60.578125 C 162.851562 61.585938 156.199219 68.28125 156.199219 75.476562 C 156.199219 81.777344 162.214844 87.976562 174.859375 87.976562 C 189.824219 87.976562 197.578125 79.644531 197.578125 71.464844 C 197.578125 65.699219 194.714844 62.539062 187.460938 57.089844 C 185.328125 55.429688 184.914062 54.371094 184.914062 53.125 C 184.914062 51.34375 185.976562 50.164062 186.367188 49.71875 C 187.054688 48.992188 188.242188 48.164062 188.6875 47.765625 C 191.125 45.695312 194.566406 42.632812 194.566406 36.515625 C 194.566406 32.320312 192.824219 28.710938 188.863281 25.332031 L 193.703125 25.332031 L 197.339844 21.6875 Z M 176.078125 24.414062 C 178.273438 24.414062 180.105469 25.191406 182.039062 26.804688 C 184.1875 28.746094 187.613281 33.960938 187.613281 40.410156 C 187.613281 47.371094 182.222656 49.277344 179.300781 49.277344 C 177.875 49.277344 176.160156 48.875 174.710938 47.882812 C 171.492188 45.789062 168.296875 40.214844 168.296875 33.582031 C 168.296875 27.597656 171.851562 24.414062 176.078125 24.414062 Z M 180.867188 63.21875 C 181.789062 63.21875 182.453125 63.296875 182.453125 63.296875 C 182.453125 63.296875 184.628906 64.855469 186.152344 66.019531 C 189.691406 68.828125 191.898438 70.972656 191.898438 74.792969 C 191.898438 80.046875 187.039062 84.167969 179.167969 84.167969 C 170.527344 84.167969 163.925781 80.132812 163.925781 73.546875 C 163.925781 68.089844 168.449219 63.394531 180.867188 63.21875 Z M 180.867188 63.21875 "/>
<path style=" stroke:none;fill-rule:nonzero;fill:url(#linear3);" d="M 199.957031 61.730469 L 216.558594 61.730469 L 219.085938 59.195312 L 214.324219 58.597656 C 213.042969 58.441406 212.28125 57.332031 212.28125 56.253906 L 212.28125 5.972656 C 212.28125 4.980469 212.738281 4.472656 213.074219 4.152344 L 216.070312 1.148438 L 201.910156 1.148438 L 198.226562 4.84375 L 203.730469 4.84375 L 203.730469 56.929688 C 203.730469 57.671875 203.496094 58.175781 203 58.691406 Z M 199.957031 61.730469 "/>
<path style=" stroke:none;fill-rule:nonzero;fill:url(#linear4);" d="M 239.050781 21.6875 C 229.78125 21.6875 219.933594 28.773438 219.933594 41.492188 C 219.933594 51.996094 227 62.933594 240.199219 62.933594 C 243.492188 62.933594 246.199219 62.511719 248.742188 61.339844 C 251.464844 60.082031 254.085938 58.039062 256 55.472656 C 252.386719 57.300781 249.441406 58.5 245.527344 58.5 C 238.089844 58.5 230.917969 53.117188 228.410156 43.226562 L 254.683594 32.578125 C 253.167969 27.152344 248.886719 21.6875 239.054688 21.6875 Z M 237.335938 24.597656 C 242.308594 24.597656 245.902344 28.703125 245.902344 31.914062 C 245.902344 32.953125 245.253906 33.5 243.96875 34.007812 L 227.820312 40.558594 C 227.820312 40.558594 227.382812 38.519531 227.382812 36.3125 C 227.382812 27.070312 234.046875 24.597656 237.335938 24.597656 Z M 237.335938 24.597656 "/>
<path style=" stroke:none;fill-rule:nonzero;fill:url(#linear5);" d="M 135.886719 21.6875 C 122.042969 21.6875 113.460938 31.835938 113.460938 42.605469 C 113.460938 51.898438 120.375 62.933594 134.375 62.933594 C 147.847656 62.933594 156.109375 52.769531 156.109375 41.8125 C 156.109375 31.605469 148.035156 21.691406 135.886719 21.691406 Z M 133.589844 24.648438 C 143.351562 24.648438 147.699219 37.402344 147.699219 46.496094 C 147.699219 60.023438 137.578125 60.292969 136.367188 60.292969 C 131.738281 60.292969 128.5 57.484375 126.078125 53.804688 C 123.945312 50.410156 121.859375 44.109375 121.859375 37.949219 C 121.859375 31.8125 123.863281 28.816406 127.015625 26.613281 C 129.589844 24.960938 132.003906 24.648438 133.585938 24.648438 Z M 133.589844 24.648438 "/>
</g>
</svg>
