<svg width="25" height="15" viewBox="0 0 25 15" fill="none" xmlns="http://www.w3.org/2000/svg">
<path d="M19.05 9.15C18.85 9.35 18.85 9.75 19.05 9.95C19.25 10.15 19.65 10.15 19.85 9.95L24.35 5.45C24.55 5.25 24.55 4.85 24.35 4.65L19.85 0.15C19.65 -0.05 19.25 -0.05 19.05 0.15C18.85 0.35 18.85 0.75 19.05 0.95L22.55 4.45H10.45C10.15 4.45 9.84998 4.75 9.84998 5.05C9.84998 5.35 10.15 5.65 10.45 5.65H22.55L19.05 9.15Z" fill="white"/>
<path d="M5.45 5.55001C5.65 5.35001 5.65 4.95001 5.45 4.75001C5.25 4.55001 4.85 4.55001 4.65 4.75001L0.15 9.25001C-0.05 9.45001 -0.05 9.85001 0.15 10.05L4.65 14.55C4.85 14.75 5.25 14.75 5.45 14.55C5.65 14.35 5.65 13.95 5.45 13.75L1.95 10.25H14.05C14.35 10.25 14.65 9.95001 14.65 9.65001C14.65 9.35001 14.35 9.05001 14.05 9.05001H1.85L5.45 5.55001Z" fill="white"/>
</svg>
