<svg width="26" height="26" viewBox="0 0 26 26" fill="none" xmlns="http://www.w3.org/2000/svg">
<path fill-rule="evenodd" clip-rule="evenodd" d="M13.2857 0C6.26426 0 0.571442 5.69282 0.571442 12.7143C0.571442 19.7358 6.26426 25.4286 13.2857 25.4286C20.3072 25.4286 26 19.7358 26 12.7143C26 5.69282 20.3072 0 13.2857 0ZM13.2855 2.11931C19.1277 2.11931 23.8807 6.87233 23.8807 12.7145C23.8807 18.5568 19.1277 23.3098 13.2855 23.3098C7.44328 23.3098 2.69026 18.5568 2.69026 12.7145C2.69026 6.87233 7.44328 2.11931 13.2855 2.11931ZM15.855 7.54001C15.1843 7.50929 14.983 7.50293 13.2857 7.50293C11.5883 7.50293 11.387 7.50823 10.7174 7.53895C8.99249 7.61736 8.18937 8.43425 8.11097 10.1454C8.0813 10.815 8.07388 11.0163 8.07388 12.7137C8.07388 14.411 8.0813 14.6123 8.11097 15.282C8.19043 16.9888 8.99037 17.8089 10.7174 17.8884C11.387 17.9191 11.5883 17.9255 13.2857 17.9255C14.9841 17.9255 15.1843 17.918 15.855 17.8884C17.5799 17.81 18.382 16.991 18.4615 15.282C18.4911 14.6123 18.4975 14.411 18.4975 12.7137C18.4975 11.0163 18.4911 10.8161 18.4615 10.1454C18.382 8.43531 17.5789 7.61842 15.855 7.54001ZM13.2855 6.35742C11.5585 6.35742 11.3434 6.36484 10.6643 6.39662C8.35449 6.50258 7.07247 7.78354 6.96652 10.0933C6.93579 10.7725 6.92838 10.9886 6.92838 12.7146C6.92838 14.4416 6.93579 14.6577 6.96652 15.3358C7.07247 17.6445 8.35449 18.9276 10.6643 19.0336C11.3434 19.0643 11.5585 19.0717 13.2855 19.0717C15.0125 19.0717 15.2287 19.0643 15.9078 19.0336C18.2134 18.9276 19.5007 17.6466 19.6045 15.3358C19.6352 14.6577 19.6427 14.4416 19.6427 12.7146C19.6427 10.9886 19.6352 10.7725 19.6045 10.0933C19.5007 7.78672 18.2176 6.50152 15.9078 6.39662C15.2287 6.36484 15.0125 6.35742 13.2855 6.35742ZM10.0214 12.7136C10.0214 10.9103 11.4835 9.44922 13.2858 9.44922C15.088 9.44922 16.5502 10.9114 16.5502 12.7136C16.5502 14.5169 15.088 15.978 13.2858 15.978C11.4835 15.978 10.0214 14.5169 10.0214 12.7136ZM13.2857 14.8328C12.1149 14.8328 11.1667 13.8845 11.1667 12.7138C11.1667 11.5441 12.1149 10.5947 13.2857 10.5947C14.4554 10.5947 15.4058 11.543 15.4058 12.7138C15.4058 13.8845 14.4554 14.8328 13.2857 14.8328ZM15.9154 9.32156C15.9154 8.89987 16.2576 8.55871 16.6782 8.55871C17.101 8.55871 17.4421 8.89987 17.4421 9.32156C17.4421 9.74325 17.0999 10.0844 16.6782 10.0844C16.2565 10.0844 15.9154 9.7422 15.9154 9.32156Z" fill="#2E3083"/>
</svg>
