<?xml version="1.0" encoding="UTF-8"?>
<svg xmlns="http://www.w3.org/2000/svg" xmlns:xlink="http://www.w3.org/1999/xlink" width="61px" height="62px" viewBox="0 0 61 62" version="1.1">
<defs>
<clipPath id="clip1">
  <path d="M 0.796875 0.429688 L 60.6875 0.429688 L 60.6875 61.320312 L 0.796875 61.320312 Z M 0.796875 0.429688 "/>
</clipPath>
</defs>
<g id="surface1">
<g clip-path="url(#clip1)" clip-rule="nonzero">
<path style=" stroke:none;fill-rule:nonzero;fill:rgb(18.039216%,18.823529%,51.372549%);fill-opacity:1;" d="M 50.980469 55.460938 C 49.671875 55.460938 48.433594 55.4375 47.191406 55.464844 C 45.570312 55.5 45.003906 54.941406 45.058594 53.308594 C 45.101562 52.097656 45.136719 50.890625 45.171875 49.679688 C 45.171875 49.644531 45.140625 49.609375 45.140625 49.609375 C 43.921875 49.609375 42.722656 49.609375 41.527344 49.609375 C 41.234375 49.609375 40.941406 49.648438 40.65625 49.609375 C 39.777344 49.492188 39.222656 48.84375 39.21875 47.929688 C 39.210938 46.535156 39.214844 45.140625 39.214844 43.683594 C 39.160156 43.679688 39.003906 43.648438 38.847656 43.652344 C 37.707031 43.6875 36.5625 43.710938 35.421875 43.78125 C 34.679688 43.824219 34.105469 43.574219 33.585938 43.050781 C 31.21875 40.644531 28.824219 38.269531 26.460938 35.859375 C 26.121094 35.511719 25.859375 35.449219 25.394531 35.617188 C 19.65625 37.714844 14.132812 37.214844 9.011719 33.867188 C 4.375 30.835938 1.640625 26.464844 0.949219 20.933594 C -0.0820312 12.734375 4.308594 5.136719 11.871094 1.847656 C 18.757812 -1.148438 27.226562 0.71875 32.257812 6.335938 C 35.847656 10.339844 37.398438 15.046875 36.925781 20.382812 C 36.785156 21.960938 36.261719 23.507812 35.839844 25.050781 C 35.699219 25.566406 35.6875 25.871094 36.101562 26.285156 C 43.757812 33.941406 51.394531 41.625 59.050781 49.285156 C 59.683594 49.917969 59.988281 50.605469 60.054688 51.484375 C 60.222656 53.667969 60.445312 55.847656 60.640625 58.03125 C 60.664062 58.320312 60.6875 58.613281 60.691406 58.902344 C 60.695312 59.792969 60.140625 60.472656 59.253906 60.582031 C 57.109375 60.847656 54.964844 61.101562 52.816406 61.308594 C 51.542969 61.429688 50.828125 60.679688 50.875 59.382812 C 50.910156 58.238281 50.945312 57.089844 50.980469 55.941406 C 50.984375 55.761719 50.980469 55.582031 50.980469 55.460938 Z M 7.917969 12.796875 C 7.933594 15.625 10.332031 18.011719 13.105469 17.957031 C 15.914062 17.90625 18.210938 15.59375 18.226562 12.789062 C 18.246094 9.992188 15.867188 7.601562 13.066406 7.601562 C 10.261719 7.601562 7.902344 9.980469 7.917969 12.796875 Z M 32.320312 30.898438 C 32.425781 31.011719 32.488281 31.089844 32.5625 31.164062 C 39.171875 37.804688 45.785156 44.445312 52.398438 51.082031 C 52.558594 51.242188 52.734375 51.402344 52.933594 51.511719 C 53.757812 51.957031 54.796875 51.3125 54.675781 50.378906 C 54.621094 49.988281 54.347656 49.570312 54.058594 49.277344 C 47.460938 42.625 40.84375 35.988281 34.230469 29.351562 C 34.105469 29.226562 33.964844 29.117188 33.832031 29.003906 C 33.3125 29.652344 32.835938 30.25 32.320312 30.894531 Z M 32.320312 30.898438 "/>
</g>
</g>
</svg>
