<svg width="181" height="13" viewBox="0 0 181 13" fill="none" xmlns="http://www.w3.org/2000/svg">
<path d="M0.429622 11.7563H11.7839L11.3543 12.15H0L0.429622 11.7563Z" fill="#D22827"/>
<path d="M1.35025 10.9125H12.6432L12.2749 11.3063H0.920624L1.35025 10.9125Z" fill="#D22827"/>
<path d="M2.20948 10.125H13.5638L13.1341 10.4625H1.84123L2.20948 10.125Z" fill="#D22827"/>
<path d="M3.13011 9.28125H14.4844L14.0548 9.675H2.70049L3.13011 9.28125Z" fill="#D22827"/>
<path d="M4.05072 8.4375H15.405L14.9754 8.83125H3.62109L4.05072 8.4375Z" fill="#D22827"/>
<path d="M4.90996 7.64999H16.2643L15.896 7.98749H4.54172L4.90996 7.64999Z" fill="white"/>
<path d="M5.83058 6.80624H17.1849L16.7552 7.19999H5.40096L5.83058 6.80624Z" fill="white"/>
<path d="M6.7512 5.96249H18.1055L17.6759 6.35624H6.32158L6.7512 5.96249Z" fill="white"/>
<path d="M7.61045 5.17499H19.0261L18.5965 5.51249H7.2422L7.61045 5.17499Z" fill="white"/>
<path d="M8.53106 4.33124H19.8854L19.5171 4.72499H8.10144L8.53106 4.33124Z" fill="white"/>
<path d="M9.45169 3.48749H20.806L20.3764 3.88124H9.02206L9.45169 3.48749Z" fill="#2E3083"/>
<path d="M10.3109 2.70001H21.7266L21.297 3.03751H9.94267L10.3109 2.70001Z" fill="#2E3083"/>
<path d="M11.2315 1.85626H22.6472L22.2176 2.25001H10.8019L11.2315 1.85626Z" fill="#2E3083"/>
<path d="M12.1522 1.01251H23.5064L23.1382 1.40626H11.7225L12.1522 1.01251Z" fill="#2E3083"/>
<path d="M24.4271 0.225006L23.9974 0.562506H12.6432L13.0114 0.225006H24.4271Z" fill="#2E3083"/>
<path d="M13.1342 0.225006H24.5498L37.5612 12.15H26.2069L13.1342 0.225006Z" fill="#2E3083"/>
<path d="M42.2871 12.15H40.0162V0.28125H48.9155V2.1375H42.2871V5.23125H48.7314V7.0875H42.2871V12.15Z" fill="#2E3083"/>
<path d="M60.9449 12.15H58.3058L55.4826 7.70625H53.2117V12.15H50.9409V0.28125H56.6487C57.9376 0.28125 58.9196 0.61875 59.7174 1.29375C60.5153 1.96875 60.8835 2.86875 60.8835 3.99375C60.8835 5.00625 60.5767 5.79375 59.9629 6.4125C59.3492 7.03125 58.6127 7.36875 57.8148 7.48125L60.9449 12.15ZM56.2804 5.85C56.9556 5.85 57.4466 5.68125 57.8762 5.34375C58.3058 5.00625 58.4899 4.55625 58.4899 3.99375C58.4899 3.43125 58.3058 2.98125 57.8762 2.64375C57.4466 2.30625 56.9556 2.1375 56.2804 2.1375H53.1503V5.90625H56.2804V5.85Z" fill="#2E3083"/>
<path d="M74.7542 12.15H72.1765L71.1945 9.9H65.3025L64.3205 12.15H61.7428L66.8369 0.28125H69.6601L74.7542 12.15ZM70.5807 8.04375L68.2485 2.3625L65.9163 8.04375H70.5807Z" fill="#2E3083"/>
<path d="M87.3973 12.15H85.1879L78.4367 3.65625V12.15H76.1658V0.28125H78.498L85.1265 8.49375V0.28125H87.3973V12.15Z" fill="#2E3083"/>
<path d="M96.4194 12.375C94.4554 12.375 92.8597 11.8125 91.5708 10.6312C90.282 9.50625 89.6068 7.9875 89.6068 6.1875C89.6068 4.3875 90.282 2.925 91.5708 1.74375C92.8597 0.61875 94.4554 0 96.4194 0C98.6903 0 100.409 0.9 101.636 2.64375L99.6723 3.54375C99.3654 3.0375 98.8744 2.64375 98.322 2.30625C97.7697 1.96875 97.0945 1.8 96.4194 1.8C95.1306 1.8 94.0872 2.19375 93.2279 3.0375C92.3687 3.825 91.9391 4.89375 91.9391 6.13125C91.9391 7.36875 92.3687 8.38125 93.2279 9.225C94.0872 10.0125 95.1306 10.4625 96.4194 10.4625C97.0945 10.4625 97.7697 10.2938 98.322 9.95625C98.8744 9.61875 99.3654 9.225 99.6723 8.71875L101.636 9.61875C100.347 11.475 98.6289 12.375 96.4194 12.375Z" fill="#2E3083"/>
<path d="M112.315 12.15H103.416V0.28125H112.315V2.1375H105.687V5.23125H112.131V7.0875H105.687V10.4062H112.315V12.15Z" fill="#2E3083"/>
<path d="M116.366 12.15H115.752V0.28125H120.233C121.399 0.28125 122.319 0.61875 122.995 1.2375C123.67 1.85625 124.038 2.7 124.038 3.65625C124.038 4.6125 123.67 5.4 122.995 6.01875C122.319 6.69375 121.399 6.975 120.233 6.975H116.366V12.15ZM120.171 6.46875C121.092 6.46875 121.89 6.1875 122.442 5.68125C122.995 5.175 123.301 4.5 123.301 3.65625C123.301 2.8125 123.056 2.1375 122.442 1.575C121.89 1.06875 121.092 0.7875 120.171 0.7875H116.305V6.46875H120.171Z" fill="#2E3083"/>
<path d="M134.963 12.15H134.165L130.237 7.03125H127.107V12.15H126.493V0.28125H130.973C132.078 0.28125 132.999 0.5625 133.735 1.18125C134.472 1.8 134.84 2.5875 134.84 3.65625C134.84 4.725 134.472 5.5125 133.735 6.13125C132.999 6.75 132.078 7.03125 131.035 7.03125L134.963 12.15ZM130.973 6.46875C131.894 6.46875 132.692 6.1875 133.244 5.68125C133.797 5.175 134.103 4.44375 134.103 3.65625C134.103 2.86875 133.858 2.1375 133.244 1.575C132.692 1.06875 131.894 0.7875 130.973 0.7875H127.107V6.46875H130.973Z" fill="#2E3083"/>
<path d="M143.494 12.375C141.652 12.375 140.179 11.8125 139.013 10.6312C137.909 9.44999 137.295 7.98749 137.295 6.24374C137.295 4.49999 137.847 3.03749 139.013 1.85624C140.118 0.674988 141.652 0.112488 143.494 0.112488C145.335 0.112488 146.808 0.674988 147.974 1.85624C149.079 3.03749 149.693 4.49999 149.693 6.24374C149.693 7.98749 149.14 9.44999 147.974 10.6312C146.808 11.7562 145.274 12.375 143.494 12.375ZM143.494 11.8125C145.151 11.8125 146.44 11.3062 147.483 10.2375C148.465 9.16874 149.017 7.81874 149.017 6.18749C149.017 4.55624 148.526 3.20624 147.483 2.13749C146.501 1.06874 145.151 0.562488 143.494 0.562488C141.837 0.562488 140.486 1.06874 139.504 2.13749C138.522 3.20624 138.031 4.55624 138.031 6.18749C138.031 7.81874 138.522 9.16874 139.504 10.2375C140.486 11.3062 141.837 11.8125 143.494 11.8125Z" fill="#2E3083"/>
<path d="M154.111 12.375C152.7 12.375 151.657 11.8688 150.859 10.8L151.411 10.35C152.148 11.3062 153.068 11.8125 154.173 11.8125C155.093 11.8125 155.891 11.5312 156.444 10.9688C156.996 10.4062 157.303 9.675 157.303 8.83125V0.28125H157.917V8.8875C157.917 10.0125 157.548 10.8562 156.873 11.475C156.014 12.0375 155.155 12.375 154.111 12.375Z" fill="#2E3083"/>
<path d="M169.148 12.15H161.231V0.28125H169.148V0.7875H161.845V5.7375H169.026V6.24375H161.845V11.5312H169.148V12.15Z" fill="#2E3083"/>
<path d="M176.084 12.15H175.47V0.7875H171.112V0.28125H180.503V0.7875H176.084V12.15Z" fill="#2E3083"/>
</svg>
