<svg width="40" height="40" viewBox="0 0 40 40" fill="none" xmlns="http://www.w3.org/2000/svg">
<g clip-path="url(#clip0_549_5127)">
<path d="M5 0.5H35C37.4853 0.5 39.5 2.51472 39.5 5V35C39.5 37.4853 37.4853 39.5 35 39.5H5C2.51472 39.5 0.5 37.4853 0.5 35V5C0.5 2.51472 2.51472 0.5 5 0.5Z" fill="#F8FAFF" stroke="#828ABF"/>
<path d="M17.3944 12.4472C17.5315 12.1731 17.8116 12 18.118 12H21.882C22.1884 12 22.4685 12.1731 22.6056 12.4472C23.0814 13.3989 24.0541 14 25.118 14H28C28.5523 14 29 14.4477 29 15V27C29 27.5523 28.5523 28 28 28H12C11.4477 28 11 27.5523 11 27V15C11 14.4477 11.4477 14 12 14H14.882C15.9459 14 16.9186 13.3989 17.3944 12.4472ZM18.118 10C17.0541 10 16.0814 10.6011 15.6056 11.5528C15.4685 11.8269 15.1884 12 14.882 12H12C10.3431 12 9 13.3431 9 15V27C9 28.6569 10.3431 30 12 30H28C29.6569 30 31 28.6569 31 27V15C31 13.3431 29.6569 12 28 12H25.118C24.8116 12 24.5315 11.8269 24.3944 11.5528C23.9186 10.6011 22.9459 10 21.882 10H18.118ZM18 21C18 19.8954 18.8954 19 20 19C21.1046 19 22 19.8954 22 21C22 22.1046 21.1046 23 20 23C18.8954 23 18 22.1046 18 21ZM20 17C17.7909 17 16 18.7909 16 21C16 23.2091 17.7909 25 20 25C22.2091 25 24 23.2091 24 21C24 18.7909 22.2091 17 20 17Z" fill="#828ABF"/>
</g>
<defs>
<clipPath id="clip0_549_5127">
<rect width="40" height="40" fill="white"/>
</clipPath>
</defs>
</svg>
