<svg width="54" height="55" viewBox="0 0 54 55" fill="none" xmlns="http://www.w3.org/2000/svg">
<path d="M45.2458 49.7055C44.067 49.7055 42.948 49.6862 41.83 49.71C40.3684 49.7406 39.8568 49.2374 39.9064 47.7627C39.9436 46.67 39.9774 45.5773 40.0089 44.4857C40.0089 44.454 39.9796 44.4211 39.9808 44.4234C38.8809 44.4234 37.8002 44.4234 36.7206 44.4234C36.4591 44.4234 36.1932 44.4562 35.9362 44.4211C35.144 44.3145 34.6459 43.7308 34.6403 42.9056C34.6324 41.6451 34.638 40.3847 34.638 39.0698C34.5896 39.0653 34.4476 39.0369 34.3078 39.0415C33.2778 39.0743 32.2467 39.0947 31.2178 39.1571C30.5495 39.1968 30.03 38.9723 29.5623 38.4963C27.4268 36.3256 25.2688 34.1776 23.1377 32.0013C22.8301 31.6873 22.5946 31.6306 22.1765 31.7836C17.0016 33.6766 12.0229 33.2266 7.40586 30.2035C3.22497 27.465 0.759259 23.5181 0.133815 18.5205C-0.793644 11.1141 3.16524 4.25189 9.98201 1.2821C16.1936 -1.42471 23.8274 0.263079 28.3655 5.33552C31.6021 8.95254 33.0006 13.2055 32.5735 18.0229C32.4473 19.4477 31.974 20.8464 31.5931 22.2395C31.4657 22.7042 31.4578 22.9819 31.8286 23.3537C38.7344 30.2704 45.6176 37.2109 52.5223 44.1298C53.0914 44.6999 53.3675 45.3211 53.4272 46.1157C53.5771 48.088 53.7777 50.0569 53.9546 52.0269C53.9783 52.2899 53.9986 52.554 53.9997 52.817C54.0031 53.6184 53.505 54.2339 52.706 54.3325C50.7733 54.5716 48.8384 54.8017 46.9001 54.9888C45.754 55.0999 45.1094 54.4198 45.1488 53.2511C45.1838 52.2151 45.2142 51.1791 45.2458 50.1419C45.2503 49.9787 45.2458 49.8154 45.2458 49.7066V49.7055ZM6.4198 11.1731C6.43333 13.7246 8.59702 15.8805 11.0965 15.8341C13.6299 15.7876 15.6978 13.6963 15.7136 11.1663C15.7293 8.63743 13.587 6.4781 11.0616 6.4781C8.53166 6.4781 6.40628 8.62836 6.4198 11.1719V11.1731ZM28.4208 27.5205C28.5143 27.6248 28.5729 27.6962 28.6383 27.7619C34.5997 33.7605 40.56 39.7578 46.5248 45.753C46.6691 45.898 46.828 46.042 47.0049 46.1384C47.7509 46.5419 48.6863 45.9604 48.5758 45.1171C48.5296 44.7645 48.2828 44.3848 48.0225 44.1218C42.0712 38.1131 36.1064 32.1203 30.1427 26.124C30.0311 26.0118 29.9049 25.9143 29.7832 25.8089C29.3167 26.3949 28.8851 26.9368 28.4208 27.5194V27.5205Z" fill="#D22827"/>
</svg>
