<svg width="61" height="61" viewBox="0 0 61 61" fill="none" xmlns="http://www.w3.org/2000/svg">
<path d="M34.5966 35.8488C34.6656 36.2314 34.7512 36.614 34.8008 36.9993C34.9996 38.5048 34.0472 39.7626 32.5895 40.1838C31.8911 40.3874 31.1291 40.7452 30.646 41.2627C26.1102 46.126 21.6269 51.039 17.127 55.9381C16.3816 56.7501 15.6169 57.5455 14.9019 58.3794C12.1467 61.5942 7.36796 61.8914 4.20974 59.029C1.13434 56.2409 0.985268 51.4105 4.08275 48.4986C9.29492 43.6022 14.6368 38.8434 19.8987 33.9965C21.1548 32.8378 22.5269 31.8167 22.9879 29.9368C23.3606 28.4093 25.0032 27.8203 26.5436 28.2772C26.7424 28.3349 26.9522 28.3542 27.5623 28.4671C26.1433 27.19 26.7894 26.1358 27.2117 25.0432C28.9813 20.4743 30.7068 15.8889 32.4902 11.3255C32.7938 10.5466 32.7607 9.98789 32.1423 9.36861C30.7813 8.00345 29.5197 6.54196 28.1421 5.19332C27.8191 4.8768 27.2035 4.85753 26.7259 4.70065C26.8832 5.14653 26.9329 5.68323 27.2173 6.02452C27.8633 6.79518 28.6307 7.464 29.3402 8.18786C30.6405 9.51448 30.6598 10.098 29.3595 11.4053C25.9225 14.854 22.4661 18.2834 19.0236 21.7238C16.5555 24.1899 14.1013 26.6753 11.6222 29.1331C10.1231 30.6194 9.67865 30.6194 8.21825 29.1744C5.76953 26.7524 3.32356 24.3248 0.902447 21.8725C-0.312252 20.6422 -0.295688 20.0972 0.921772 18.8807C6.93453 12.8723 12.9528 6.86949 18.9794 0.877658C20.161 -0.297589 20.7711 -0.289332 22.0134 0.883163C22.8802 1.70336 23.7443 2.53456 24.5477 3.41531C25.1826 4.11165 25.732 4.18872 26.3256 3.41531C26.966 2.58135 27.5265 2.69145 28.2083 3.44008C29.9117 5.30341 31.6647 7.12271 33.4233 8.9365C34.0748 9.61082 34.1548 10.2273 33.7904 11.1439C31.8662 15.9962 30.0359 20.8844 28.1752 25.7615C27.786 26.7771 28.443 28.2937 29.4562 28.445C29.8289 28.5001 30.3561 28.1093 30.6791 27.7872C34.0085 24.4899 37.3103 21.1651 40.6231 17.8513C43.2872 15.187 46.012 12.5833 48.5987 9.84752C49.7416 8.63924 50.5919 7.16124 51.5996 5.8236C51.895 5.43277 52.2152 5.02543 52.6128 4.75295C53.8192 3.91624 55.067 3.13733 56.2983 2.33915C56.3756 2.28961 56.4584 2.24557 56.5302 2.19327C57.2783 1.65106 57.9933 1.8162 58.4488 2.51255C59.2632 3.76211 61.6236 4.23275 60.8479 6.22269C60.2102 7.85483 58.9982 9.26678 58.0016 10.7503C57.8111 11.0338 57.4605 11.287 57.1292 11.3888C55.379 11.931 54.2001 13.2109 52.9661 14.4467C47.1218 20.2954 41.2608 26.1303 35.4082 31.9708C35.0245 32.3561 34.6628 32.7635 34.1686 33.2919C36.2419 35.3507 38.2407 37.3544 40.278 39.3223C40.4326 39.4736 40.902 39.4709 41.1256 39.3525C42.5335 38.6094 43.5632 39.1736 44.5571 40.1727C47.9582 43.5911 51.3843 46.9875 54.802 50.3922C56.0388 51.6252 57.2921 52.8417 58.5068 54.0941C59.9755 55.6051 59.9644 56.4748 58.5206 57.9501C58.2639 58.2115 58.0044 58.473 57.7393 58.7262C56.3838 60.0143 55.5694 60.0226 54.2195 58.6822C49.4269 53.9234 44.6592 49.1426 39.8612 44.3893C38.8508 43.3875 38.4781 42.3774 39.3504 41.103C39.4968 40.8883 39.5961 40.4039 39.4719 40.2746C37.9673 38.7085 36.4186 37.1837 34.8809 35.6479C34.787 35.714 34.6932 35.7828 34.5993 35.8488H34.5966ZM9.85533 26.1523C15.2828 20.733 20.7655 15.2586 26.1157 9.91633C24.2412 8.01997 22.2618 6.01902 20.4591 4.19697C15.0509 9.58054 9.56546 15.0384 4.1352 20.444C5.99314 22.2963 7.96427 24.267 9.85533 26.1523ZM11.3378 45.9802C13.2537 47.9701 14.9957 49.7784 16.8371 51.6913C19.5288 48.7628 22.1763 45.8783 24.7989 43.0242C24.5974 42.7242 24.5366 42.5948 24.4428 42.4985C23.6698 41.7113 22.894 40.9296 22.1155 40.1507C20.7591 38.7966 19.3475 38.7535 17.8806 40.0214C17.7426 40.1425 17.5825 40.2388 17.4472 40.3627C15.3905 42.2508 13.3338 44.1444 11.3378 45.9802ZM4.92476 53.9124C5.03795 55.3904 5.79989 56.7611 7.46459 57.5207C9.17621 58.3024 10.7746 58.0161 12.1301 56.7143C12.7872 56.0812 13.4856 55.4647 14.0157 54.7298C14.2338 54.4271 14.2503 53.6592 14.024 53.4115C12.5995 51.8674 11.0921 50.3977 9.57927 48.9334C9.35013 48.7132 8.91946 48.482 8.6572 48.5481C7.14987 48.9252 4.93028 52.0023 4.92752 53.9124H4.92476ZM53.5762 7.57684C53.1069 8.19887 52.3146 9.5365 51.2545 10.6099C45.0871 16.8467 38.8535 23.0174 32.6448 29.2129C32.3521 29.5047 32.007 29.7717 31.811 30.1212C31.6951 30.3304 31.7227 30.8038 31.8773 30.9277C32.0981 31.1066 32.5205 31.1864 32.7994 31.1066C33.0754 31.0295 33.288 30.7102 33.5144 30.4818C37.1833 26.8129 40.7667 23.0532 44.5433 19.4972C48.3171 15.9439 51.376 11.5953 55.459 9.4099C54.8738 8.84016 54.1808 8.16309 53.5762 7.57409V7.57684ZM42.4921 41.5985C41.3602 42.1599 41.4927 42.7297 42.2657 43.4948C46.5061 47.6976 50.7134 51.9335 54.9455 56.1418C55.3596 56.5519 55.7848 57.3253 56.5219 56.6152C57.2645 55.8996 56.5053 55.473 56.0857 55.0519C51.8342 50.794 47.5745 46.5499 43.3093 42.303C43.0553 42.0498 42.7626 41.8297 42.4921 41.5957V41.5985ZM29.0283 38.2103C27.9461 37.2085 26.8777 36.2754 25.8756 35.2763C24.3931 33.8011 24.3655 33.7791 22.9106 35.3424C22.7311 35.5378 22.5986 35.7773 22.444 35.9947C22.3447 36.1186 22.2453 36.2397 22.1459 36.3635C23.1259 37.1865 24.1557 37.9599 25.0722 38.8461C27.1289 40.8306 27.1041 40.8553 29.0283 38.2103Z" fill="#D22827"/>
</svg>
