<svg width="62" height="13" viewBox="0 0 62 13" fill="none" xmlns="http://www.w3.org/2000/svg">
<path d="M6 0L7.83389 3.76552L11.7063 4.49139L8.9673 7.54448L9.52671 11.7586L6 9.88L2.47329 11.7586L3.0327 7.54448L0.293661 4.49139L4.16611 3.76552L6 0Z" fill="#D22827"/>
<path d="M18.5 0L20.4867 3.76552L24.6819 4.49139L21.7146 7.54448L22.3206 11.7586L18.5 9.88L14.6794 11.7586L15.2854 7.54448L12.3181 4.49139L16.5133 3.76552L18.5 0Z" fill="#D22827"/>
<path d="M31 0L32.8339 3.76552L36.7063 4.49139L33.9673 7.54448L34.5267 11.7586L31 9.88L27.4733 11.7586L28.0327 7.54448L25.2937 4.49139L29.1661 3.76552L31 0Z" fill="#D22827"/>
<path d="M43.5 0L45.4867 3.76552L49.6819 4.49139L46.7146 7.54448L47.3206 11.7586L43.5 9.88L39.6794 11.7586L40.2854 7.54448L37.3181 4.49139L41.5133 3.76552L43.5 0Z" fill="#D22827"/>
<path d="M56 0L57.8339 3.76552L61.7063 4.49139L58.9673 7.54448L59.5267 11.7586L56 9.88L52.4733 11.7586L53.0327 7.54448L50.2937 4.49139L54.1661 3.76552L56 0Z" fill="#D22827"/>
</svg>
