<svg width="40" height="40" viewBox="0 0 40 40" fill="none" xmlns="http://www.w3.org/2000/svg">
<g clip-path="url(#clip0_9040_31357)">
<path d="M5 0.5H35C37.4853 0.5 39.5 2.51472 39.5 5V35C39.5 37.4853 37.4853 39.5 35 39.5H5C2.51472 39.5 0.5 37.4853 0.5 35V5C0.5 2.51472 2.51472 0.5 5 0.5Z" fill="#F8FAFF" stroke="#828ABF"/>
<path d="M14 10C13.4477 10 13 10.4477 13 11V29C13 29.5523 13.4477 30 14 30H26C26.5523 30 27 29.5523 27 29V16.5H21.5C20.9477 16.5 20.5 16.0523 20.5 15.5V10H14ZM22.5 11.4142V14.5H25.5858L22.5 11.4142ZM11 11C11 9.34315 12.3431 8 14 8H21.5C21.7652 8 22.0196 8.10536 22.2071 8.29289L28.7071 14.7929C28.8946 14.9804 29 15.2348 29 15.5V29C29 30.6569 27.6569 32 26 32H14C12.3431 32 11 30.6569 11 29V11Z" fill="#828ABF"/>
</g>
<defs>
<clipPath id="clip0_9040_31357">
<rect width="40" height="40" fill="white"/>
</clipPath>
</defs>
</svg>
