<svg width="30" height="27" viewBox="0 0 30 27" fill="none" xmlns="http://www.w3.org/2000/svg">
<g filter="url(#filter0_d_142_1161)">
<path d="M18.2552 11.9131L16.4127 13.7619C15.6655 14.5117 14.3508 14.5278 13.5875 13.7619L11.7448 11.9131L5.12695 18.5524C5.37329 18.6664 5.6449 18.7343 5.93365 18.7343H24.0665C24.3552 18.7343 24.6267 18.6664 24.873 18.5525L18.2552 11.9131Z" fill="white"/>
<path d="M24.0664 3.26562H5.93356C5.64481 3.26562 5.37321 3.3336 5.12695 3.44751L12.1986 10.5426C12.1991 10.5431 12.1997 10.5432 12.2001 10.5437C12.2006 10.5441 12.2007 10.5448 12.2007 10.5448L14.5001 12.8518C14.7443 13.096 15.2557 13.096 15.5 12.8518L17.7989 10.5452C17.7989 10.5452 17.7994 10.5441 17.7999 10.5437C17.7999 10.5437 17.8009 10.5431 17.8014 10.5426L24.8729 3.44747C24.6266 3.33352 24.3551 3.26562 24.0664 3.26562Z" fill="white"/>
<path d="M4.20565 4.34863C4.0782 4.60636 4 4.89245 4 5.1989V16.8005C4 17.1069 4.07812 17.393 4.20561 17.6507L10.835 10.9999L4.20565 4.34863Z" fill="white"/>
<path d="M25.7943 4.34863L19.165 11L25.7943 17.6509C25.9217 17.3932 25.9999 17.1071 25.9999 16.8005V5.19898C25.9999 4.89245 25.9217 4.60636 25.7943 4.34863Z" fill="white"/>
</g>
<defs>
<filter id="filter0_d_142_1161" x="0" y="0" width="30" height="30" filterUnits="userSpaceOnUse" color-interpolation-filters="sRGB">
<feFlood flood-opacity="0" result="BackgroundImageFix"/>
<feColorMatrix in="SourceAlpha" type="matrix" values="0 0 0 0 0 0 0 0 0 0 0 0 0 0 0 0 0 0 127 0" result="hardAlpha"/>
<feOffset dy="4"/>
<feGaussianBlur stdDeviation="2"/>
<feComposite in2="hardAlpha" operator="out"/>
<feColorMatrix type="matrix" values="0 0 0 0 0 0 0 0 0 0 0 0 0 0 0 0 0 0 0.25 0"/>
<feBlend mode="normal" in2="BackgroundImageFix" result="effect1_dropShadow_142_1161"/>
<feBlend mode="normal" in="SourceGraphic" in2="effect1_dropShadow_142_1161" result="shape"/>
</filter>
</defs>
</svg>
