<svg width="16" height="24" viewBox="0 0 16 24" fill="none" xmlns="http://www.w3.org/2000/svg">
<path d="M8 0C3.63806 0 0 3.80178 0 8.6559C0 10.5026 0.512873 12.1493 1.49716 13.6924L7.38778 23.6378C7.67355 24.1212 8.32703 24.1203 8.61222 23.6378L14.5284 13.6585C15.4915 12.1854 16 10.4556 16 8.6559C16 3.88304 12.4112 0 8 0ZM8 12.5904C5.99501 12.5904 4.36364 10.8253 4.36364 8.6559C4.36364 6.48652 5.99501 4.7214 8 4.7214C10.005 4.7214 11.6364 6.48652 11.6364 8.6559C11.6364 10.8253 10.005 12.5904 8 12.5904Z" fill="white"/>
</svg>
