<svg width="20" height="25" viewBox="0 0 20 25" fill="none" xmlns="http://www.w3.org/2000/svg">
<path d="M17.76 17.4004C16.4636 16.1086 15.148 15.3262 13.8675 16.616L13.1029 17.3955C12.5435 17.9614 11.5034 20.6053 7.48203 15.216C3.46146 9.83344 5.85404 8.99538 6.41429 8.4344L7.18306 7.6539C8.45681 6.3612 7.97612 4.73386 7.05744 3.05872L6.50306 2.04407C5.58019 0.37283 4.57526 -0.724746 3.29816 0.566003L2.60811 1.26845C2.04367 1.74748 0.465926 3.30458 0.0832146 6.26266C-0.377379 9.81198 1.07559 13.8764 4.40442 18.336C7.72907 22.7975 10.9842 25.0385 14.0677 24.9995C16.6303 24.9673 18.1779 23.3653 18.6619 22.7829L19.3545 22.0795C20.6282 20.7897 19.8368 19.4765 18.5396 18.1818L17.76 17.4004Z" fill="white"/>
</svg>
