<svg width="62" height="62" viewBox="0 0 62 62" fill="none" xmlns="http://www.w3.org/2000/svg">
<path d="M34.6879 36.0397C34.7569 36.4223 34.8425 36.8049 34.8922 37.1902C35.091 38.6957 34.1385 39.9536 32.6809 40.3747C31.9825 40.5783 31.2205 40.9361 30.7374 41.4536C26.2016 46.317 21.7182 51.2299 17.2183 56.129C16.473 56.941 15.7082 57.7364 14.9932 58.5704C12.2381 61.7851 7.45933 62.0823 4.30111 59.2199C1.22571 56.4318 1.07664 51.6014 4.17412 48.6895C9.38629 43.7931 14.7282 39.0343 19.9901 34.1874C21.2462 33.0287 22.6182 32.0076 23.0793 30.1277C23.452 28.6002 25.0946 28.0112 26.635 28.4681C26.8338 28.5259 27.0436 28.5451 27.6537 28.658C26.2347 27.3809 26.8807 26.3268 27.3031 25.2341C29.0727 20.6652 30.7981 16.0798 32.5815 11.5164C32.8852 10.7375 32.8521 10.1788 32.2337 9.55953C30.8727 8.19437 29.611 6.73288 28.2335 5.38424C27.9105 5.06772 27.2948 5.04845 26.8172 4.89157C26.9746 5.33745 27.0243 5.87415 27.3086 6.21544C27.9546 6.9861 28.7221 7.65491 29.4316 8.37878C30.7319 9.7054 30.7512 10.2889 29.4509 11.5963C26.0139 15.0449 22.5575 18.4743 19.1149 21.9148C16.6469 24.3809 14.1926 26.8662 11.7135 29.324C10.2145 30.8103 9.77002 30.8103 8.30962 29.3653C5.8609 26.9433 3.41493 24.5157 0.993817 22.0634C-0.220883 20.8331 -0.204319 20.2881 1.01314 19.0716C7.0259 13.0633 13.0442 7.06041 19.0708 1.06858C20.2523 -0.106671 20.8624 -0.0984137 22.1047 1.07408C22.9716 1.89428 23.8357 2.72548 24.639 3.60623C25.274 4.30257 25.8234 4.37963 26.4169 3.60623C27.0574 2.77227 27.6178 2.88236 28.2997 3.631C30.003 5.49433 31.7561 7.31362 33.5146 9.12741C34.1662 9.80173 34.2462 10.4183 33.8818 11.3348C31.9576 16.1872 30.1273 21.0753 28.2666 25.9524C27.8773 26.968 28.5344 28.4846 29.5475 28.636C29.9202 28.691 30.4475 28.3002 30.7705 27.9782C34.0999 24.6809 37.4017 21.356 40.7145 18.0422C43.3785 15.378 46.1033 12.7743 48.6901 10.0384C49.833 8.83016 50.6833 7.35216 51.691 6.01452C51.9864 5.62369 52.3066 5.21634 52.7041 4.94386C53.9105 4.10715 55.1584 3.32824 56.3896 2.53007C56.4669 2.48052 56.5498 2.43649 56.6215 2.38419C57.3697 1.84198 58.0847 2.00712 58.5402 2.70346C59.3546 3.95302 61.715 4.42367 60.9392 6.41361C60.3015 8.04574 59.0896 9.45769 58.093 10.9412C57.9025 11.2247 57.5519 11.4779 57.2206 11.5797C55.4703 12.122 54.2915 13.4018 53.0575 14.6376C47.2131 20.4863 41.3522 26.3212 35.4996 32.1617C35.1158 32.547 34.7542 32.9544 34.26 33.4828C36.3333 35.5416 38.332 37.5453 40.3694 39.5132C40.524 39.6646 40.9933 39.6618 41.2169 39.5435C42.6249 38.8003 43.6546 39.3646 44.6485 40.3637C48.0496 43.7821 51.4756 47.1784 54.8933 50.5831C56.1301 51.8161 57.3835 53.0327 58.5982 54.285C60.0669 55.796 60.0558 56.6657 58.612 58.141C58.3552 58.4025 58.0957 58.6639 57.8307 58.9171C56.4752 60.2052 55.6608 60.2135 54.3108 58.8731C49.5183 54.1143 44.7506 49.3335 39.9525 44.5802C38.9421 43.5784 38.5694 42.5683 39.4418 41.2939C39.5881 41.0793 39.6875 40.5949 39.5633 40.4655C38.0587 38.8994 36.51 37.3746 34.9723 35.8388C34.8784 35.9049 34.7845 35.9737 34.6907 36.0397H34.6879ZM9.9467 26.3433C15.3742 20.9239 20.8569 15.4495 26.2071 10.1072C24.3326 8.21089 22.3532 6.20994 20.5505 4.38789C15.1423 9.77146 9.65683 15.2293 4.22657 20.6349C6.08451 22.4872 8.05564 24.4579 9.9467 26.3433ZM11.4292 46.1711C13.3451 48.161 15.0871 49.9693 16.9285 51.8822C19.6201 48.9537 22.2676 46.0693 24.8903 43.2151C24.6887 42.9151 24.628 42.7857 24.5341 42.6894C23.7612 41.9022 22.9854 41.1206 22.2069 40.3416C20.8505 38.9875 19.4388 38.9444 17.972 40.2123C17.834 40.3334 17.6738 40.4297 17.5386 40.5536C15.4819 42.4417 13.4252 44.3353 11.4292 46.1711ZM5.01613 54.1033C5.12932 55.5813 5.89126 56.952 7.55595 57.7116C9.26758 58.4933 10.866 58.207 12.2215 56.9052C12.8785 56.2722 13.577 55.6556 14.107 54.9208C14.3251 54.618 14.3417 53.8501 14.1153 53.6024C12.6908 52.0583 11.1835 50.5886 9.67064 49.1243C9.4415 48.9042 9.01083 48.673 8.74857 48.739C7.24124 49.1161 5.02165 52.1932 5.01889 54.1033H5.01613ZM53.6676 7.76776C53.1983 8.38979 52.406 9.72742 51.3459 10.8008C45.1785 17.0376 38.9449 23.2084 32.7361 29.4039C32.4435 29.6956 32.0984 29.9626 31.9024 30.3121C31.7864 30.5213 31.8141 30.9947 31.9687 31.1186C32.1895 31.2975 32.6119 31.3773 32.8907 31.2975C33.1668 31.2204 33.3794 30.9011 33.6057 30.6727C37.2747 27.0038 40.858 23.2441 44.6347 19.6881C48.4085 16.1349 51.4673 11.7862 55.5504 9.60081C54.9651 9.03108 54.2722 8.35401 53.6676 7.76501V7.76776ZM42.5835 41.7894C41.4516 42.3508 41.5841 42.9206 42.3571 43.6857C46.5975 47.8885 50.8048 52.1244 55.0369 56.3327C55.451 56.7428 55.8761 57.5162 56.6133 56.8061C57.3559 56.0905 56.5967 55.6639 56.1771 55.2428C51.9256 50.9849 47.6659 46.7408 43.4006 42.494C43.1467 42.2408 42.854 42.0206 42.5835 41.7866V41.7894ZM29.1196 38.4012C28.0374 37.3994 26.9691 36.4664 25.9669 35.4673C24.4844 33.992 24.4568 33.97 23.002 35.5333C22.8225 35.7287 22.69 35.9682 22.5354 36.1856C22.436 36.3095 22.3366 36.4306 22.2373 36.5544C23.2173 37.3774 24.247 38.1508 25.1636 39.037C27.2203 41.0215 27.1954 41.0462 29.1196 38.4012Z" fill="#2E3083"/>
</svg>
