<svg width="26" height="26" viewBox="0 0 26 26" fill="none" xmlns="http://www.w3.org/2000/svg">
<path fill-rule="evenodd" clip-rule="evenodd" d="M12.7143 0C5.69282 0 0 5.69282 0 12.7143C0 19.7358 5.69282 25.4286 12.7143 25.4286C19.7358 25.4286 25.4286 19.7358 25.4286 12.7143C25.4286 5.69282 19.7358 0 12.7143 0ZM12.7142 2.11931C18.5564 2.11931 23.3094 6.87233 23.3094 12.7145C23.3094 18.5568 18.5564 23.3098 12.7142 23.3098C6.87194 23.3098 2.11892 18.5568 2.11892 12.7145C2.11892 6.87233 6.87194 2.11931 12.7142 2.11931ZM8.47632 10.5955H10.5954V8.8028C10.5954 7.19657 11.4409 6.35742 13.3459 6.35742H15.893V9.00623H14.3652C13.8757 9.00623 13.7739 9.20648 13.7739 9.71293V10.5955H15.893L15.7023 12.7146H13.7739V19.0717H10.5954V12.7146H8.47632V10.5955Z" fill="#2E3083"/>
</svg>
