<svg width="33" height="17" viewBox="0 0 33 17" fill="none" xmlns="http://www.w3.org/2000/svg">
<g clip-path="url(#clip0_188_525)">
<path d="M16.317 0.0292754C11.8877 0.291431 7.24711 2.30129 2.9107 5.83781C2.04445 6.54204 1.14469 7.36191 0.446016 8.08155L0 8.53904L0.234609 8.79349C0.605859 9.19443 1.58297 10.1223 2.30484 10.7571C5.89875 13.9235 9.63961 15.9282 13.3263 16.6659C14.5793 16.9152 15.4301 17 16.7295 17C17.7169 17.0025 18.0623 16.982 18.908 16.874C22.4452 16.4217 25.9359 14.8667 29.1741 12.2966C30.507 11.2403 31.8476 9.94491 32.7989 8.79606L33 8.55703L32.9304 8.47479C31.7367 7.04835 30.3935 5.69646 29.0864 4.60928C25.1238 1.31178 20.808 -0.23545 16.317 0.0292754ZM17.5132 1.53024C18.4465 1.63819 19.2638 1.88749 20.0965 2.31157C22.5637 3.57351 24.0616 6.07427 23.9662 8.76521C23.9095 10.2688 23.3913 11.6566 22.4374 12.8518C22.2131 13.1319 21.6279 13.7153 21.3443 13.9415C20.3053 14.7691 19.0859 15.2908 17.7091 15.5016C17.1574 15.5864 16.188 15.5864 15.6209 15.5016C14.1771 15.2883 12.9009 14.7177 11.831 13.8156C11.5242 13.556 11.0318 13.0394 10.792 12.7284C10.0238 11.7286 9.55195 10.5695 9.39469 9.30495C9.31734 8.6804 9.35602 7.80655 9.48492 7.16915C10.0959 4.18264 12.6328 1.90805 15.7755 1.53281C16.188 1.48398 17.1007 1.48141 17.5132 1.53024Z" fill="#2E3083"/>
<path d="M16.3038 4.62964C14.8678 4.77871 13.6226 5.64485 13.0193 6.9145C12.5552 7.89116 12.514 8.97576 12.8981 9.96784C13.3261 11.073 14.2439 11.9494 15.3705 12.3247C15.8939 12.4994 16.0821 12.5277 16.7292 12.5277C17.2758 12.5277 17.3273 12.5251 17.6186 12.4557C17.9976 12.3684 18.2116 12.2913 18.5468 12.1319C19.6734 11.5922 20.4804 10.5615 20.7433 9.33044C20.8155 8.99632 20.8078 8.12504 20.733 7.78835C20.5835 7.12268 20.3076 6.56753 19.8719 6.04836C19.0186 5.03572 17.647 4.49085 16.3038 4.62964Z" fill="#2E3083"/>
</g>
<defs>
<clipPath id="clip0_188_525">
<rect width="33" height="17" fill="white"/>
</clipPath>
</defs>
</svg>
