<svg width="56" height="56" viewBox="0 0 56 56" fill="none" xmlns="http://www.w3.org/2000/svg">
<g clip-path="url(#clip0_178_431)">
<path d="M21.3672 32.4563H25.9509V34.7476H21.3672V32.4563ZM30.5335 34.7476H35.1172V32.4563H30.5335V34.7476ZM21.3672 43.9139H25.9509V41.6226H21.3672V43.9139ZM30.5335 43.9139H35.1172V41.6226H30.5335V43.9139ZM21.3672 16.4139H25.9509V14.1226H21.3672V16.4139ZM30.5335 16.4139H35.1172V14.1226H30.5335V16.4139ZM21.3672 25.5812H25.9509V23.2899H21.3672V25.5812ZM30.5335 25.5812H35.1172V23.2899H30.5335V25.5812ZM55.7422 17.5601V55.3726H0.742188V26.7264C0.742188 23.566 3.31387 20.9976 6.471 20.9976H12.1998V6.10137C12.1998 2.94102 14.7715 0.372559 17.9286 0.372559H38.5536C41.7118 0.372559 44.2824 2.94102 44.2824 6.10137V11.8302H50.0112C53.1694 11.8302 55.74 14.3986 55.74 17.559L55.7422 17.5601ZM53.4509 17.5601C53.4509 15.6651 51.9083 14.1226 50.0134 14.1226H41.9922V6.10137C41.9922 4.20645 40.4496 2.66387 38.5547 2.66387H17.9297C16.0348 2.66387 14.4922 4.20645 14.4922 6.10137V23.2889H6.471C4.57607 23.2889 3.0335 24.8314 3.0335 26.7264V53.0802H53.4498V17.5601H53.4509ZM41.9922 34.7476H46.5759V32.4563H41.9922V34.7476ZM41.9922 43.9139H46.5759V41.6226H41.9922V43.9139ZM9.9085 34.7476H14.4922V32.4563H9.9085V34.7476ZM9.9085 43.9139H14.4922V41.6226H9.9085V43.9139ZM41.9922 25.5812H46.5759V23.2899H41.9922V25.5812Z" fill="#2E3083"/>
</g>
<defs>
<clipPath id="clip0_178_431">
<rect width="55" height="55" fill="white" transform="translate(0.742188 0.372559)"/>
</clipPath>
</defs>
</svg>
