<svg width="43" height="46" viewBox="0 0 43 46" fill="none" xmlns="http://www.w3.org/2000/svg">
<path d="M41.0712 15.3999L37.4922 12.3831V4.06939H35.7425V10.9047L24.4459 1.37911C22.8537 0.0370431 20.6274 0.0370431 19.0384 1.37911L2.41316 15.3999C1.35086 16.2949 0.742188 17.6396 0.742188 19.089V45.3732H14.7425V27.5374C14.7425 25.985 15.9204 24.7213 17.3675 24.7213H26.1177C27.5648 24.7213 28.7427 25.985 28.7427 27.5374V45.3732H42.743V19.089C42.743 17.6396 42.1343 16.2932 41.072 15.3999H41.0712ZM40.9925 43.4952H30.4925V27.5374C30.4925 24.9501 28.5311 22.8442 26.1177 22.8442H17.3675C14.9541 22.8442 12.9927 24.951 12.9927 27.5374V43.4952H2.49191V19.089C2.49191 18.2196 2.85777 17.4126 3.4927 16.8757L20.118 2.85493C21.0753 2.0497 22.4091 2.0497 23.3639 2.85493L39.9892 16.8757C40.6241 17.4126 40.99 18.2196 40.99 19.089V43.4952H40.9916H40.9925Z" fill="#2E3083"/>
</svg>
