<svg width="17" height="28" viewBox="0 0 17 28" fill="none" xmlns="http://www.w3.org/2000/svg">
<path d="M13.2824 0.985718H3.10853C1.85988 0.985718 0.847656 1.99794 0.847656 3.24659V24.7248C0.847656 25.9735 1.85988 26.9857 3.10853 26.9857H13.2824C14.5311 26.9857 15.5433 25.9735 15.5433 24.7248V3.24659C15.5433 1.99794 14.5311 0.985718 13.2824 0.985718Z" stroke="#A0A3BD" stroke-width="1.6" stroke-linecap="round" stroke-linejoin="round"/>
<path d="M11.8983 0.985718V2.46695C11.8983 2.85979 11.7423 3.23655 11.4645 3.51433C11.1867 3.79212 10.8099 3.94818 10.4171 3.94818H5.97342C5.58057 3.94818 5.20381 3.79212 4.92603 3.51433C4.64825 3.23655 4.49219 2.85979 4.49219 2.46695V0.985718" stroke="#A0A3BD" stroke-width="1.6" stroke-linecap="round" stroke-linejoin="round"/>
</svg>
