<svg width="39" height="40" viewBox="0 0 39 40" fill="none" xmlns="http://www.w3.org/2000/svg">
<path d="M1.625 20.4122V7.13598C1.625 4.60098 3.68875 2.53723 6.22375 2.53723C7.49125 2.53723 8.71 3.07348 9.5875 3.98348L8.10875 11.6047L10.3187 14.6272L20.9788 6.63223L18.9312 3.62598L11.0988 3.26848C9.92875 1.78973 8.10875 0.912231 6.22375 0.912231C2.795 0.912231 0 3.70723 0 7.13598V20.4122L0.73125 26.2947C1.2025 30.0485 3.16875 33.2985 5.99625 35.4597L4.7775 39.9122H6.45125L7.41 36.4185C9.44125 37.621 11.8138 38.2872 14.3163 38.2872H24.6838C27.1862 38.2872 29.5425 37.6047 31.5737 36.4185L32.5325 39.9122H34.2062L32.9875 35.4597C35.815 33.2985 37.7975 30.0485 38.2687 26.2785L39 20.396H1.625V20.4122ZM11.0662 4.89348L18.0537 5.20223L18.7688 6.25848L10.66 12.336L9.83125 11.2147L11.0662 4.89348ZM36.6763 26.0835C35.9287 32.1122 30.7775 36.6622 24.7 36.6622H14.3325C8.255 36.6622 3.10375 32.1122 2.35625 26.0835L1.8525 22.0372H37.18L36.6763 26.0835Z" fill="#2E3083"/>
</svg>
