<svg width="33" height="45" viewBox="0 0 33 45" fill="none" xmlns="http://www.w3.org/2000/svg">
<g clip-path="url(#clip0_178_470)">
<path d="M33 8.24556V6.41223H29.3333V5.49556C29.3333 2.96556 27.28 0.912231 24.75 0.912231H8.25C5.72 0.912231 3.66667 2.96556 3.66667 5.49556V18.1272C1.52167 19.3006 0 21.2072 0 22.9122C0 27.4956 3.66667 33.5272 11.6783 35.2506C11.55 37.6706 10.3767 38.2756 8.91 39.0272C7.38833 39.8156 5.5 40.7872 5.5 43.9956V44.9122H27.5V43.9956C27.5 40.7872 25.6117 39.8156 24.09 39.0272C22.6233 38.2756 21.45 37.6522 21.3217 35.2506C29.3333 33.5272 33 27.4956 33 22.9122C33 21.2072 31.4783 19.3006 29.3333 18.1272V8.24556H33ZM5.5 5.49556C5.5 3.9739 6.72833 2.74556 8.25 2.74556H24.75C26.2717 2.74556 27.5 3.9739 27.5 5.49556V17.4489L5.5 17.4122V5.49556ZM23.2467 40.6589C24.4567 41.2822 25.3367 41.7406 25.5933 43.0789H7.40667C7.66333 41.7406 8.525 41.2822 9.75333 40.6589C11.33 39.8522 13.2367 38.8622 13.4933 35.5622C14.4467 35.6906 15.455 35.7456 16.5 35.7456C17.545 35.7456 18.5533 35.6906 19.5067 35.5622C19.7633 38.8622 21.67 39.8522 23.2467 40.6589ZM16.5 33.9122C8.54333 33.9122 4.03333 30.0256 2.45667 26.1939C5.15167 27.6239 9.955 28.4122 16.5 28.4122C22.6417 28.4122 27.5 28.0456 30.305 26.6889C28.5633 30.3556 24.1083 33.9122 16.5 33.9122ZM31.1667 22.9122C31.1667 25.4789 26.785 26.5789 16.5 26.5789C6.215 26.5789 1.83333 24.3789 1.83333 22.9122C1.83333 21.9406 3.28167 20.0889 5.64667 19.2456H27.335C29.7 20.0889 31.1483 21.9406 31.1483 22.9122H31.1667Z" fill="#2E3083"/>
</g>
<defs>
<clipPath id="clip0_178_470">
<rect width="33" height="44" fill="white" transform="translate(0 0.912231)"/>
</clipPath>
</defs>
</svg>
