<?xml version="1.0" encoding="UTF-8"?>
<svg xmlns="http://www.w3.org/2000/svg" xmlns:xlink="http://www.w3.org/1999/xlink" width="26px" height="26px" viewBox="0 0 25 25" version="1.1">
<defs>
<linearGradient id="linear0" gradientUnits="userSpaceOnUse" x1="-974.482" y1="1306.773" x2="-622.378" y2="1658.877" gradientTransform="matrix(0.0502057,0,0,0.0502057,52.585746,-61.946356)">
<stop offset="0" style="stop-color:rgb(14.117647%,53.72549%,74.509804%);stop-opacity:1;"/>
<stop offset="1" style="stop-color:rgb(1.960784%,45.882353%,70.196078%);stop-opacity:1;"/>
</linearGradient>
</defs>
<g id="surface1">
<path style=" stroke:none;fill-rule:nonzero;fill:url(#linear0);" d="M 12.5 0 C 5.597656 0 0 5.597656 0 12.5 C 0 19.402344 5.597656 25 12.5 25 C 19.402344 25 25 19.402344 25 12.5 C 25 5.597656 19.402344 0 12.5 0 Z M 9.164062 18.542969 L 6.421875 18.542969 L 6.421875 9.675781 L 9.164062 9.675781 Z M 7.78125 8.515625 C 6.882812 8.515625 6.15625 7.78125 6.15625 6.878906 C 6.15625 5.976562 6.882812 5.242188 7.78125 5.242188 C 8.675781 5.242188 9.402344 5.976562 9.402344 6.878906 C 9.402344 7.78125 8.675781 8.515625 7.78125 8.515625 Z M 19.449219 18.542969 L 16.71875 18.542969 L 16.71875 13.890625 C 16.71875 12.613281 16.234375 11.898438 15.222656 11.898438 C 14.125 11.898438 13.550781 12.640625 13.550781 13.890625 L 13.550781 18.542969 L 10.917969 18.542969 L 10.917969 9.675781 L 13.550781 9.675781 L 13.550781 10.871094 C 13.550781 10.871094 14.34375 9.40625 16.222656 9.40625 C 18.105469 9.40625 19.449219 10.554688 19.449219 12.929688 Z M 19.449219 18.542969 "/>
</g>
</svg>
