<svg width="290" height="22" viewBox="0 0 290 22" fill="none" xmlns="http://www.w3.org/2000/svg">
<path d="M0.689815 20.9H18.9207L18.2308 21.6H0L0.689815 20.9Z" fill="#D22827"/>
<path d="M2.16796 19.4H20.3003L19.709 20.1H1.47815L2.16796 19.4Z" fill="#D22827"/>
<path d="M3.54757 18H21.7784L21.0886 18.6H2.9563L3.54757 18Z" fill="#D22827"/>
<path d="M5.02575 16.5H23.2566L22.5668 17.2H4.33594L5.02575 16.5Z" fill="#D22827"/>
<path d="M6.50402 15H24.7349L24.045 15.7H5.81421L6.50402 15Z" fill="#D22827"/>
<path d="M7.88363 13.6H26.1145L25.5232 14.2H7.29236L7.88363 13.6Z" fill="white"/>
<path d="M9.36181 12.1H27.5926L26.9028 12.8H8.672L9.36181 12.1Z" fill="white"/>
<path d="M10.84 10.6H29.0708L28.381 11.3H10.1501L10.84 10.6Z" fill="white"/>
<path d="M12.2196 9.20001H30.5489L29.8591 9.80001H11.6283L12.2196 9.20001Z" fill="white"/>
<path d="M13.6977 7.70001H31.9286L31.3373 8.40001H13.0079L13.6977 7.70001Z" fill="white"/>
<path d="M15.1759 6.20001H33.4067L32.7169 6.90001H14.4861L15.1759 6.20001Z" fill="#2E3083"/>
<path d="M16.5556 4.79999H34.885L34.1952 5.39999H15.9644L16.5556 4.79999Z" fill="#2E3083"/>
<path d="M18.0337 3.29999H36.3631L35.6733 3.99999H17.3439L18.0337 3.29999Z" fill="#2E3083"/>
<path d="M19.512 1.79999H37.7428L37.1515 2.49999H18.8221L19.512 1.79999Z" fill="#2E3083"/>
<path d="M39.2209 0.399994L38.5311 0.999994H20.3003L20.8916 0.399994H39.2209Z" fill="#2E3083"/>
<path d="M21.0886 0.399994H39.418L60.3096 21.6H42.0787L21.0886 0.399994Z" fill="#2E3083"/>
<path d="M67.8975 21.6H64.2513V0.5H78.5404V3.8H67.8975V9.3H78.2447V12.6H67.8975V21.6Z" fill="#2E3083"/>
<path d="M97.8552 21.6H93.6178L89.0847 13.7H85.4385V21.6H81.7924V0.5H90.9571C93.0265 0.5 94.6032 1.1 95.8843 2.3C97.1654 3.5 97.7567 5.1 97.7567 7.1C97.7567 8.9 97.2639 10.3 96.2785 11.4C95.293 12.5 94.1105 13.1 92.8294 13.3L97.8552 21.6ZM90.3658 10.4C91.4498 10.4 92.2381 10.1 92.928 9.5C93.6178 8.9 93.9134 8.1 93.9134 7.1C93.9134 6.1 93.6178 5.3 92.928 4.7C92.2381 4.1 91.4498 3.8 90.3658 3.8H85.34V10.5H90.3658V10.4Z" fill="#2E3083"/>
<path d="M120.028 21.6H115.889L114.312 17.6H104.852L103.275 21.6H99.1364L107.316 0.5H111.849L120.028 21.6ZM113.327 14.3L109.582 4.2L105.837 14.3H113.327Z" fill="#2E3083"/>
<path d="M140.328 21.6H136.781L125.941 6.5V21.6H122.294V0.5H126.039L136.682 15.1V0.5H140.328V21.6Z" fill="#2E3083"/>
<path d="M154.814 22C151.661 22 149.099 21 147.029 18.9C144.96 16.9 143.876 14.2 143.876 11C143.876 7.8 144.96 5.2 147.029 3.1C149.099 1.1 151.661 0 154.814 0C158.46 0 161.22 1.6 163.191 4.7L160.037 6.3C159.544 5.4 158.756 4.7 157.869 4.1C156.982 3.5 155.898 3.2 154.814 3.2C152.745 3.2 151.07 3.9 149.69 5.4C148.31 6.8 147.62 8.7 147.62 10.9C147.62 13.1 148.31 14.9 149.69 16.4C151.07 17.8 152.745 18.6 154.814 18.6C155.898 18.6 156.982 18.3 157.869 17.7C158.756 17.1 159.544 16.4 160.037 15.5L163.191 17.1C161.121 20.4 158.362 22 154.814 22Z" fill="#2E3083"/>
<path d="M180.337 21.6H166.048V0.5H180.337V3.8H169.695V9.3H180.042V12.6H169.695V18.5H180.337V21.6Z" fill="#2E3083"/>
<path d="M186.841 21.6H185.856V0.5H193.05C194.922 0.5 196.4 1.1 197.484 2.2C198.568 3.3 199.16 4.8 199.16 6.5C199.16 8.2 198.568 9.6 197.484 10.7C196.4 11.9 194.922 12.4 193.05 12.4H186.841V21.6ZM192.951 11.5C194.429 11.5 195.71 11 196.597 10.1C197.484 9.2 197.977 8 197.977 6.5C197.977 5 197.583 3.8 196.597 2.8C195.71 1.9 194.429 1.4 192.951 1.4H186.743V11.5H192.951Z" fill="#2E3083"/>
<path d="M216.701 21.6H215.419L209.113 12.5H204.087V21.6H203.101V0.5H210.295C212.069 0.5 213.547 1 214.73 2.1C215.912 3.2 216.503 4.6 216.503 6.5C216.503 8.4 215.912 9.8 214.73 10.9C213.547 12 212.069 12.5 210.394 12.5L216.701 21.6ZM210.295 11.5C211.773 11.5 213.054 11 213.941 10.1C214.828 9.2 215.321 7.9 215.321 6.5C215.321 5.1 214.927 3.8 213.941 2.8C213.054 1.9 211.773 1.4 210.295 1.4H204.087V11.5H210.295Z" fill="#2E3083"/>
<path d="M230.398 22C227.442 22 225.077 21 223.205 18.9C221.431 16.8 220.445 14.2 220.445 11.1C220.445 8.00001 221.332 5.40001 223.205 3.30001C224.978 1.20001 227.442 0.200012 230.398 0.200012C233.355 0.200012 235.72 1.20001 237.592 3.30001C239.366 5.40001 240.351 8.00001 240.351 11.1C240.351 14.2 239.465 16.8 237.592 18.9C235.72 20.9 233.256 22 230.398 22ZM230.398 21C233.059 21 235.129 20.1 236.804 18.2C238.381 16.3 239.267 13.9 239.267 11C239.267 8.10001 238.479 5.70001 236.804 3.80001C235.227 1.90001 233.059 1.00001 230.398 1.00001C227.738 1.00001 225.57 1.90001 223.993 3.80001C222.416 5.70001 221.628 8.10001 221.628 11C221.628 13.9 222.416 16.3 223.993 18.2C225.57 20.1 227.738 21 230.398 21Z" fill="#2E3083"/>
<path d="M247.447 22C245.18 22 243.505 21.1 242.224 19.2L243.111 18.4C244.293 20.1 245.771 21 247.545 21C249.023 21 250.304 20.5 251.191 19.5C252.078 18.5 252.571 17.2 252.571 15.7V0.5H253.556V15.8C253.556 17.8 252.965 19.3 251.881 20.4C250.502 21.4 249.122 22 247.447 22Z" fill="#2E3083"/>
<path d="M271.59 21.6H258.878V0.5H271.59V1.4H259.863V10.2H271.393V11.1H259.863V20.5H271.59V21.6Z" fill="#2E3083"/>
<path d="M282.726 21.6H281.74V1.4H274.744V0.5H289.821V1.4H282.726V21.6Z" fill="#2E3083"/>
</svg>
