<svg width="256" height="32" viewBox="0 0 256 32" fill="none" xmlns="http://www.w3.org/2000/svg">
<path d="M127.483 27.5771H118.86V4.52359H127.483V27.5771ZM119.702 26.735H126.641V5.36569H119.702V26.735ZM139.481 27.5771H131.032V4.52359H148.686C151.215 4.31879 153.733 5.0288 155.783 6.52443C156.665 7.33169 157.349 8.33191 157.781 9.44702C158.213 10.5622 158.382 11.762 158.274 12.9531C158.4 15.0111 157.745 17.041 156.44 18.6373C154.895 20.4091 152.325 21.3219 148.802 21.3539C147.914 21.3775 141.263 21.3539 139.486 21.3539L139.481 27.5771ZM131.869 26.735H138.639V20.5034H139.062C139.148 20.5034 147.783 20.5303 148.782 20.5034C152.064 20.4747 154.424 19.6613 155.803 18.0731C156.965 16.6288 157.542 14.8009 157.42 12.9514C157.523 11.8842 157.38 10.8075 157 9.80483C156.62 8.80214 156.015 7.90038 155.23 7.16948C153.33 5.80544 151.005 5.16515 148.674 5.36401H131.874L131.869 26.735ZM146.897 16.175H138.582V9.89958H146.952C147.546 9.8176 148.15 9.88685 148.71 10.1009C149.269 10.315 149.765 10.6669 150.152 11.124C150.504 11.7083 150.669 12.3854 150.627 13.0659C150.659 13.6976 150.522 14.3265 150.232 14.8882C149.832 15.3697 149.316 15.7403 148.732 15.9645C148.148 16.1887 147.516 16.2588 146.897 16.1682V16.175ZM139.424 15.3328H146.897C148.278 15.3328 149.134 15.0448 149.512 14.452C149.721 14.0211 149.816 13.5438 149.787 13.0659C149.824 12.5641 149.715 12.0623 149.474 11.6208L149.464 11.6057C149.063 11.0162 148.266 10.7417 146.952 10.7417H139.424V15.3328ZM173.642 27.9173C166.08 27.9173 161.566 26.0394 159.847 22.1775C159.565 21.4315 159.374 20.6546 159.278 19.8634L159.203 19.3783H168.2L168.259 19.732C168.329 20.0911 168.482 20.4291 168.704 20.719C169.059 21.1484 170.245 21.8693 174.179 21.8693C178.909 21.8693 178.909 21.039 178.909 20.5926C178.909 19.8398 178.361 19.5821 174.504 19.1712L173.772 19.1021C172.32 18.9657 170.484 18.7922 169.646 18.7198C162.572 18.0798 159.414 15.8819 159.414 11.5956C159.414 7.09369 164.788 4.18506 173.107 4.18506C179.892 4.18506 184.264 5.97369 186.099 9.50548C186.533 10.327 186.826 11.2166 186.963 12.1362L187.022 12.6095H178.014L177.977 12.2288C177.942 11.9314 177.816 11.6523 177.614 11.4305C177.277 10.9792 176.212 10.2331 172.908 10.2331C168.851 10.2331 168.291 10.7518 168.291 11.311C168.291 12.0571 169.573 12.3215 173.681 12.7611C175.394 12.9008 178.147 13.1838 179.091 13.2983C185.021 13.9417 187.667 16.0857 187.667 20.2524C187.668 23.7472 185.235 27.9173 173.642 27.9173ZM160.187 20.2204C160.271 20.7759 160.417 21.3202 160.62 21.844C162.186 25.3623 166.447 27.0752 173.642 27.0752C179.658 27.0752 186.831 25.8962 186.831 20.2524C186.831 16.559 184.49 14.7299 179.001 14.1354C178.058 14.0208 175.321 13.7396 173.612 13.5981C169.233 13.1232 167.453 12.8705 167.453 11.311C167.453 9.69748 169.371 9.39095 172.911 9.39095C175.709 9.39095 177.516 9.89622 178.282 10.9152C178.491 11.1662 178.649 11.4557 178.747 11.7674H186.046C185.9 11.116 185.667 10.4869 185.356 9.89622C183.672 6.66422 179.557 5.02716 173.11 5.02716C165.304 5.02716 160.259 7.60569 160.259 11.5956C160.259 15.4019 163.091 17.2815 169.723 17.8811C170.565 17.9535 172.399 18.127 173.854 18.2651L174.592 18.3341C178.174 18.7114 179.754 18.9472 179.754 20.5926C179.754 22.3644 177.711 22.7114 174.183 22.7114C170.919 22.7114 168.857 22.2213 168.061 21.2562C167.815 20.9485 167.63 20.597 167.515 20.2204H160.187ZM203.667 27.8886C194.875 27.8886 190.024 24.3333 190.024 17.876V4.52359H198.533V17.876C198.533 20.0907 200.515 21.3606 203.97 21.3606C207.271 21.3606 209.32 20.0352 209.32 17.9046V4.52359H217.742V18.5834C217.75 24.4966 212.615 27.8886 203.662 27.8886H203.667ZM190.867 5.36569V17.876C190.867 25.8558 198.88 27.0465 203.667 27.0465C208.615 27.0465 216.913 25.9467 216.913 18.5834V5.36569H210.176V17.9046C210.176 20.5152 207.744 22.2027 203.983 22.2027C200.052 22.2027 197.704 20.5859 197.704 17.876V5.36569H190.867ZM253.427 27.5771H245.396V17.1686L240.842 27.5771H233.838L229.331 17.1888V27.5771H221.272V4.52359H231.872L237.379 17.2343L243.153 4.52359H253.437L253.427 27.5771ZM246.238 26.735H252.584V5.36569H243.688L237.352 19.3093L231.313 5.36569H222.107V26.735H228.482V13.1366L234.376 26.74H240.271L246.228 13.1568L246.238 26.735ZM10.1963 4.94464H2.52637V27.156H23.7205V21.2427H10.1963V4.94464ZM39.2017 4.43937C29.4114 4.43937 24.2628 9.07937 24.2628 15.892C24.2628 23.5888 29.6674 27.4928 39.2017 27.4928C49.6977 27.4928 54.1121 22.9657 54.1121 15.892C54.1121 8.70885 49.1318 4.43601 39.2017 4.43601V4.43937ZM39.1731 10.2112C39.8395 10.208 40.5057 10.2468 41.1672 10.3274L32.5929 18.9017C32.1872 17.984 31.9893 16.9878 32.0135 15.9846C32.0135 12.5 33.7685 10.2078 39.1731 10.2078V10.2112ZM39.2017 21.812C38.5595 21.8149 37.9179 21.7788 37.2801 21.7042L45.8695 13.1147C46.2601 14.0173 46.447 14.9949 46.4169 15.9779C46.4169 19.3682 44.8 21.8086 39.2017 21.8086V21.812ZM69.3087 18.7804H77.2026C77.0864 19.3283 76.8442 19.8415 76.4952 20.2794C74.8587 21.6126 72.7701 22.2614 70.6662 22.0899C69.6071 22.2032 68.5363 22.0875 67.5259 21.7507C66.5156 21.414 65.5893 20.864 64.8102 20.1379C64.012 18.9672 63.6329 17.5612 63.7339 16.148C63.6048 14.6671 64.0171 13.1897 64.8944 11.9897C65.9975 10.7434 67.8653 10.2061 70.6106 10.2061C72.3573 10.0615 74.1018 10.5101 75.5622 11.4794C76.0225 11.845 76.3665 12.3365 76.5525 12.8941H83.8737C83.8205 11.9753 83.5995 11.074 83.2219 10.2347C81.4687 6.66927 77.3929 4.54716 70.4624 4.54716C64.4346 4.54716 60.3891 6.38632 58.1542 9.16022C56.6781 11.1633 55.9204 13.6056 56.0034 16.0924C55.9079 18.6356 56.6461 21.1402 58.1053 23.2251C60.3133 26.0882 64.2459 27.4962 68.9718 27.4962C72.1137 27.7153 75.2342 26.8353 77.7988 25.007L77.9975 27.156H84.0792V13.999H69.3087V18.7804ZM101.341 4.43432C91.5521 4.43432 86.4017 9.07432 86.4017 15.887C86.4017 23.5838 91.8047 27.4878 101.341 27.4878C111.838 27.4878 116.253 22.9606 116.253 15.887C116.253 8.70885 111.272 4.43601 101.341 4.43601V4.43432ZM101.314 10.2061C101.963 10.2042 102.611 10.2413 103.256 10.3173L94.715 18.863C94.3219 17.9553 94.1306 16.9734 94.1542 15.9846C94.1474 12.5 95.9091 10.2061 101.314 10.2061ZM101.341 21.807C100.681 21.8098 100.023 21.7714 99.3685 21.6924L107.987 13.0726C108.392 13.9872 108.586 14.9814 108.554 15.9813C108.558 19.3682 106.947 21.8086 101.341 21.8086V21.807Z" fill="#394149"/>
</svg>
