<svg width="70" height="70" viewBox="0 0 70 70" fill="none" xmlns="http://www.w3.org/2000/svg">
<path d="M35.0013 43.7502C22.1096 43.7502 11.668 48.971 11.668 55.4168V61.2502H58.3346V55.4168C58.3346 48.971 47.893 43.7502 35.0013 43.7502ZM23.3346 26.2502C23.3346 29.3444 24.5638 32.3118 26.7517 34.4997C28.9396 36.6877 31.9071 37.9168 35.0013 37.9168C38.0955 37.9168 41.063 36.6877 43.2509 34.4997C45.4388 32.3118 46.668 29.3444 46.668 26.2502M33.543 5.8335C32.668 5.8335 32.0846 6.446 32.0846 7.29183V16.0418H29.168V8.75016C29.168 8.75016 22.6055 11.2585 22.6055 19.6877C22.6055 19.6877 20.418 20.096 20.418 23.3335H49.5846C49.4388 20.096 47.3971 19.6877 47.3971 19.6877C47.3971 11.2585 40.8346 8.75016 40.8346 8.75016V16.0418H37.918V7.29183C37.918 6.446 37.3638 5.8335 36.4596 5.8335H33.543Z" fill="#D22827"/>
</svg>
