<svg width="27" height="26" viewBox="0 0 27 26" fill="none" xmlns="http://www.w3.org/2000/svg">
<path fill-rule="evenodd" clip-rule="evenodd" d="M13.5 0C6.47853 0 0.785706 5.69282 0.785706 12.7143C0.785706 19.7358 6.47853 25.4286 13.5 25.4286C20.5215 25.4286 26.2143 19.7358 26.2143 12.7143C26.2143 5.69282 20.5215 0 13.5 0ZM13.4999 2.11931C19.3421 2.11931 24.0952 6.87233 24.0952 12.7145C24.0952 18.5568 19.3421 23.3098 13.4999 23.3098C7.65772 23.3098 2.90469 18.5568 2.90469 12.7145C2.90469 6.87233 7.65772 2.11931 13.4999 2.11931ZM18.8888 9.71199C19.4164 9.64842 19.9197 9.50856 20.387 9.3009C20.0373 9.8243 19.5955 10.2841 19.0848 10.6507C19.2501 14.3199 16.5144 18.4107 11.6703 18.4107C10.1975 18.4107 8.82755 17.9795 7.67267 17.2388C9.05747 17.402 10.438 17.0174 11.5368 16.1571C10.3967 16.1359 9.43148 15.3826 9.09985 14.3464C9.50882 14.4248 9.91144 14.4014 10.278 14.3019C9.02356 14.0497 8.15687 12.9192 8.18548 11.7113C8.53724 11.9063 8.9388 12.0239 9.36579 12.0376C8.20455 11.261 7.87504 9.72683 8.55843 8.55499C9.84469 10.1326 11.7677 11.171 13.9345 11.2801C13.5541 9.64842 14.7916 8.07715 16.4763 8.07715C17.2253 8.07715 17.9045 8.39395 18.3792 8.90146C18.9735 8.78491 19.5319 8.56771 20.0363 8.26892C19.8402 8.87815 19.4281 9.38884 18.8888 9.71199Z" fill="#2E3083"/>
</svg>
