<svg width="33" height="32" viewBox="0 0 33 32" fill="none" xmlns="http://www.w3.org/2000/svg">
<g clip-path="url(#clip0_30_1456)">
<path d="M15.822 15.4145C17.9397 15.4145 19.7734 14.655 21.2717 13.1564C22.77 11.6582 23.5295 9.82491 23.5295 7.707C23.5295 5.58982 22.77 3.75633 21.2715 2.25756C19.7729 0.759519 17.9395 0 15.822 0C13.7041 0 11.8708 0.759519 10.3726 2.2578C8.87427 3.75609 8.1145 5.58958 8.1145 7.707C8.1145 9.82491 8.87427 11.6584 10.3728 13.1567C11.8713 14.6547 13.7048 15.4145 15.822 15.4145Z" fill="#2E3083"/>
<path d="M29.3081 24.6063C29.2649 23.9828 29.1775 23.3026 29.0488 22.5844C28.9189 21.8608 28.7517 21.1767 28.5515 20.5514C28.3447 19.9052 28.0635 19.267 27.7158 18.6554C27.355 18.0207 26.9312 17.4679 26.4556 17.0131C25.9583 16.5373 25.3494 16.1547 24.6453 15.8757C23.9436 15.5981 23.166 15.4575 22.3342 15.4575C22.0076 15.4575 21.6917 15.5915 21.0815 15.9887C20.7061 16.2336 20.2668 16.5168 19.7766 16.83C19.3574 17.0971 18.7896 17.3473 18.0881 17.5739C17.4038 17.7953 16.709 17.9076 16.0232 17.9076C15.3374 17.9076 14.6428 17.7953 13.9578 17.5739C13.2571 17.3476 12.6892 17.0973 12.2705 16.8303C11.7849 16.52 11.3455 16.2368 10.9644 15.9885C10.355 15.5912 10.0388 15.4572 9.71216 15.4572C8.88013 15.4572 8.10278 15.5981 7.40137 15.8759C6.69775 16.1545 6.08862 16.537 5.59082 17.0134C5.11548 17.4684 4.69141 18.0209 4.33105 18.6554C3.98364 19.267 3.70239 19.905 3.49536 20.5517C3.29541 21.1769 3.12817 21.8608 2.99829 22.5844C2.86963 23.3017 2.78223 23.9821 2.73901 24.6071C2.69653 25.2194 2.67505 25.8549 2.67505 26.4967C2.67505 28.1671 3.20605 29.5194 4.25317 30.5167C5.28735 31.5009 6.65576 32.0001 8.31982 32.0001H23.728C25.3921 32.0001 26.76 31.5011 27.7944 30.5167C28.8418 29.5201 29.3728 28.1676 29.3728 26.4965C29.3726 25.8517 29.3508 25.2157 29.3081 24.6063Z" fill="#2E3083"/>
</g>
<defs>
<clipPath id="clip0_30_1456">
<rect width="32" height="32" fill="white" transform="translate(0.0500488)"/>
</clipPath>
</defs>
</svg>
